%TF.GenerationSoftware,KiCad,Pcbnew,9.0.4*%
%TF.CreationDate,2025-09-01T01:35:23+05:30*%
%TF.ProjectId,L298,4c323938-2e6b-4696-9361-645f70636258,rev?*%
%TF.SameCoordinates,Original*%
%TF.FileFunction,Profile,NP*%
%FSLAX46Y46*%
G04 Gerber Fmt 4.6, Leading zero omitted, Abs format (unit mm)*
G04 Created by KiCad (PCBNEW 9.0.4) date 2025-09-01 01:35:23*
%MOMM*%
%LPD*%
G01*
G04 APERTURE LIST*
%ADD10C,0.050000*%
%TA.AperFunction,Profile*%
%ADD11C,0.050000*%
%TD*%
G04 APERTURE END LIST*
D10*
X188000000Y-90500000D02*
X188007897Y-90499990D01*
X188015778Y-90499960D01*
X188023642Y-90499910D01*
X188031490Y-90499840D01*
X188039321Y-90499751D01*
X188047135Y-90499642D01*
X188054933Y-90499512D01*
X188062715Y-90499364D01*
X188070481Y-90499195D01*
X188078230Y-90499007D01*
X188085962Y-90498799D01*
X188093679Y-90498572D01*
X188101379Y-90498325D01*
X188109064Y-90498059D01*
X188116732Y-90497773D01*
X188124384Y-90497468D01*
X188132020Y-90497144D01*
X188139640Y-90496800D01*
X188147244Y-90496437D01*
X188154832Y-90496055D01*
X188162405Y-90495653D01*
X188169962Y-90495233D01*
X188177503Y-90494793D01*
X188185028Y-90494334D01*
X188192537Y-90493856D01*
X188200031Y-90493359D01*
X188207509Y-90492843D01*
X188214972Y-90492308D01*
X188222419Y-90491754D01*
X188229851Y-90491182D01*
X188237267Y-90490590D01*
X188244668Y-90489980D01*
X188252054Y-90489351D01*
X188259424Y-90488703D01*
X188266779Y-90488036D01*
X188274118Y-90487351D01*
X188281443Y-90486647D01*
X188288752Y-90485925D01*
X188296047Y-90485184D01*
X188303326Y-90484424D01*
X188310590Y-90483646D01*
X188317839Y-90482849D01*
X188325074Y-90482034D01*
X188332293Y-90481201D01*
X188339498Y-90480349D01*
X188346687Y-90479478D01*
X188353862Y-90478590D01*
X188361022Y-90477683D01*
X188368168Y-90476758D01*
X188375298Y-90475814D01*
X188382415Y-90474852D01*
X188389516Y-90473873D01*
X188396603Y-90472875D01*
X188403675Y-90471859D01*
X188410734Y-90470824D01*
X188417777Y-90469772D01*
X188424807Y-90468702D01*
X188431821Y-90467613D01*
X188438822Y-90466507D01*
X188445807Y-90465383D01*
X188452780Y-90464240D01*
X188459737Y-90463080D01*
X188466682Y-90461902D01*
X188473611Y-90460706D01*
X188480527Y-90459492D01*
X188487427Y-90458261D01*
X188494316Y-90457011D01*
X188501188Y-90455744D01*
X188508049Y-90454459D01*
X188514893Y-90453157D01*
X188521726Y-90451836D01*
X188528543Y-90450499D01*
X188535348Y-90449143D01*
X188542138Y-90447770D01*
X188548915Y-90446379D01*
X188555677Y-90444970D01*
X188562428Y-90443544D01*
X188569162Y-90442101D01*
X188575886Y-90440640D01*
X188582593Y-90439161D01*
X188589290Y-90437665D01*
X188595970Y-90436152D01*
X188602640Y-90434620D01*
X188609294Y-90433072D01*
X188615937Y-90431506D01*
X188622564Y-90429923D01*
X188629180Y-90428323D01*
X188635781Y-90426705D01*
X188642371Y-90425069D01*
X188648945Y-90423417D01*
X188655509Y-90421747D01*
X188662057Y-90420060D01*
X188668594Y-90418356D01*
X188675116Y-90416634D01*
X188681628Y-90414895D01*
X188688124Y-90413139D01*
X188701080Y-90409576D01*
X188713984Y-90405943D01*
X188726837Y-90402242D01*
X188739640Y-90398473D01*
X188752392Y-90394635D01*
X188765094Y-90390729D01*
X188777745Y-90386755D01*
X188790347Y-90382713D01*
X188802900Y-90378603D01*
X188815403Y-90374425D01*
X188827857Y-90370179D01*
X188840262Y-90365866D01*
X188852619Y-90361484D01*
X188864928Y-90357036D01*
X188877189Y-90352519D01*
X188889402Y-90347935D01*
X188901567Y-90343284D01*
X188913686Y-90338565D01*
X188925757Y-90333779D01*
X188937782Y-90328925D01*
X188949760Y-90324004D01*
X188961691Y-90319016D01*
X188973577Y-90313961D01*
X188985417Y-90308838D01*
X188997211Y-90303648D01*
X189008959Y-90298391D01*
X189020663Y-90293067D01*
X189032321Y-90287675D01*
X189043935Y-90282216D01*
X189055504Y-90276690D01*
X189067029Y-90271096D01*
X189078510Y-90265435D01*
X189089947Y-90259707D01*
X189101340Y-90253911D01*
X189112689Y-90248048D01*
X189123995Y-90242118D01*
X189135258Y-90236120D01*
X189146478Y-90230054D01*
X189157655Y-90223921D01*
X189168789Y-90217720D01*
X189179881Y-90211451D01*
X189190931Y-90205115D01*
X189201938Y-90198710D01*
X189212904Y-90192238D01*
X189223828Y-90185698D01*
X189234710Y-90179089D01*
X189245551Y-90172412D01*
X189256350Y-90165667D01*
X189267108Y-90158854D01*
X189277826Y-90151972D01*
X189288502Y-90145021D01*
X189299137Y-90138001D01*
X189309732Y-90130913D01*
X189320287Y-90123756D01*
X189330801Y-90116529D01*
X189341275Y-90109234D01*
X189351709Y-90101869D01*
X189362103Y-90094434D01*
X189372456Y-90086930D01*
X189382771Y-90079356D01*
X189393045Y-90071712D01*
X189403280Y-90063998D01*
X189413476Y-90056214D01*
X189423632Y-90048359D01*
X189433749Y-90040434D01*
X189443826Y-90032438D01*
X189453865Y-90024371D01*
X189463864Y-90016233D01*
X189473825Y-90008024D01*
X189483747Y-89999743D01*
X189493629Y-89991391D01*
X189503474Y-89982967D01*
X189513279Y-89974471D01*
X189523046Y-89965903D01*
X189532774Y-89957263D01*
X189542464Y-89948550D01*
X189552115Y-89939764D01*
X189561728Y-89930905D01*
X189571302Y-89921973D01*
X189580838Y-89912968D01*
X189590336Y-89903889D01*
X189599795Y-89894736D01*
X189609216Y-89885509D01*
X189618599Y-89876208D01*
X189627943Y-89866833D01*
X189637249Y-89857383D01*
X189646517Y-89847858D01*
X189655746Y-89838258D01*
X189664937Y-89828582D01*
X189674090Y-89818831D01*
X189683205Y-89809004D01*
X189692281Y-89799101D01*
X189701319Y-89789122D01*
X189710318Y-89779066D01*
X189719279Y-89768934D01*
X189728201Y-89758724D01*
X189737085Y-89748438D01*
X189745931Y-89738074D01*
X189754738Y-89727632D01*
X189763506Y-89717112D01*
X189772235Y-89706514D01*
X189780926Y-89695837D01*
X189789577Y-89685082D01*
X189798190Y-89674248D01*
X189806764Y-89663334D01*
X189815299Y-89652342D01*
X189823794Y-89641269D01*
X189832250Y-89630117D01*
X189840667Y-89618884D01*
X189849044Y-89607571D01*
X189857382Y-89596178D01*
X189865680Y-89584703D01*
X189873938Y-89573148D01*
X189882157Y-89561511D01*
X189890335Y-89549792D01*
X189898473Y-89537992D01*
X189906571Y-89526109D01*
X189914628Y-89514144D01*
X189922645Y-89502097D01*
X189930621Y-89489966D01*
X189938556Y-89477753D01*
X189946449Y-89465457D01*
X189954302Y-89453077D01*
X189962114Y-89440613D01*
X189969883Y-89428065D01*
X189977611Y-89415433D01*
X189985297Y-89402717D01*
X189992941Y-89389917D01*
X190000543Y-89377031D01*
X190008102Y-89364061D01*
X190015619Y-89351005D01*
X190023092Y-89337864D01*
X190030523Y-89324638D01*
X190037910Y-89311325D01*
X190045253Y-89297927D01*
X190052553Y-89284443D01*
X190059809Y-89270873D01*
X190067020Y-89257216D01*
X190074187Y-89243473D01*
X190081309Y-89229643D01*
X190088387Y-89215726D01*
X190095419Y-89201722D01*
X190102405Y-89187631D01*
X190109346Y-89173453D01*
X190116241Y-89159188D01*
X190123089Y-89144835D01*
X190129891Y-89130395D01*
X190136646Y-89115867D01*
X190143353Y-89101252D01*
X190150014Y-89086549D01*
X190156626Y-89071758D01*
X190163191Y-89056880D01*
X190169706Y-89041914D01*
X190176174Y-89026860D01*
X190182592Y-89011718D01*
X190188961Y-88996489D01*
X190195280Y-88981172D01*
X190201549Y-88965767D01*
X190207767Y-88950275D01*
X190213935Y-88934696D01*
X190220052Y-88919029D01*
X190226117Y-88903275D01*
X190232131Y-88887434D01*
X190238092Y-88871506D01*
X190244001Y-88855491D01*
X190249856Y-88839390D01*
X190255658Y-88823202D01*
X190261407Y-88806929D01*
X190267101Y-88790570D01*
X190272741Y-88774125D01*
X190278326Y-88757596D01*
X190283855Y-88740981D01*
X190289329Y-88724283D01*
X190294746Y-88707501D01*
X190300106Y-88690635D01*
X190305410Y-88673687D01*
X190310655Y-88656656D01*
X190315843Y-88639544D01*
X190320972Y-88622350D01*
X190326042Y-88605076D01*
X190331053Y-88587722D01*
X190336003Y-88570290D01*
X190340893Y-88552779D01*
X190345722Y-88535191D01*
X190350490Y-88517527D01*
X190355196Y-88499787D01*
X190359839Y-88481974D01*
X190364419Y-88464087D01*
X190368936Y-88446127D01*
X190373388Y-88428098D01*
X190377776Y-88409998D01*
X190382099Y-88391831D01*
X190386355Y-88373597D01*
X190390546Y-88355299D01*
X190394669Y-88336937D01*
X190398725Y-88318513D01*
X190402713Y-88300031D01*
X190406632Y-88281490D01*
X190410482Y-88262895D01*
X190414262Y-88244246D01*
X190417971Y-88225546D01*
X190421609Y-88206799D01*
X190425175Y-88188006D01*
X190428669Y-88169171D01*
X190432089Y-88150296D01*
X190435436Y-88131385D01*
X190438708Y-88112442D01*
X190441904Y-88093471D01*
X190445025Y-88074474D01*
X190448069Y-88055457D01*
X190451035Y-88036424D01*
X190453924Y-88017381D01*
X190456733Y-87998331D01*
X190459463Y-87979282D01*
X190462112Y-87960239D01*
X190464679Y-87941209D01*
X190467165Y-87922199D01*
X190469568Y-87903216D01*
X190471887Y-87884269D01*
X190474121Y-87865366D01*
X190476270Y-87846519D01*
X190478333Y-87827737D01*
X190480308Y-87809033D01*
X190482195Y-87790418D01*
X190483993Y-87771909D01*
X190485701Y-87753519D01*
X190487318Y-87735268D01*
X190488843Y-87717175D01*
X190490275Y-87699263D01*
X190491613Y-87681556D01*
X190492856Y-87664083D01*
X190494003Y-87646879D01*
X190495053Y-87629983D01*
X190496004Y-87613440D01*
X190496856Y-87597307D01*
X190497608Y-87581651D01*
X190498258Y-87566560D01*
X190498805Y-87552144D01*
X190499249Y-87538556D01*
X190499589Y-87526012D01*
X190499825Y-87514857D01*
X190499959Y-87505728D01*
X190500000Y-87500000D01*
X149000000Y-87500000D02*
X149000010Y-87509477D01*
X149000040Y-87518934D01*
X149000090Y-87528371D01*
X149000160Y-87537788D01*
X149000249Y-87547185D01*
X149000358Y-87556562D01*
X149000488Y-87565920D01*
X149000636Y-87575258D01*
X149000805Y-87584576D01*
X149000993Y-87593874D01*
X149001201Y-87603153D01*
X149001428Y-87612413D01*
X149001675Y-87621653D01*
X149001941Y-87630873D01*
X149002227Y-87640074D01*
X149002532Y-87649255D01*
X149002856Y-87658418D01*
X149003200Y-87667560D01*
X149003563Y-87676684D01*
X149003945Y-87685789D01*
X149004346Y-87694874D01*
X149004767Y-87703940D01*
X149005206Y-87712987D01*
X149005665Y-87722015D01*
X149006143Y-87731024D01*
X149006640Y-87740013D01*
X149007155Y-87748985D01*
X149007690Y-87757936D01*
X149008243Y-87766870D01*
X149008816Y-87775784D01*
X149009407Y-87784680D01*
X149010017Y-87793556D01*
X149010646Y-87802415D01*
X149011293Y-87811254D01*
X149011959Y-87820075D01*
X149012644Y-87828877D01*
X149013347Y-87837661D01*
X149014069Y-87846426D01*
X149014809Y-87855173D01*
X149015568Y-87863901D01*
X149016346Y-87872612D01*
X149017141Y-87881303D01*
X149017955Y-87889977D01*
X149018788Y-87898632D01*
X149019639Y-87907269D01*
X149020508Y-87915887D01*
X149021395Y-87924489D01*
X149022301Y-87933071D01*
X149023224Y-87941636D01*
X149024166Y-87950182D01*
X149025126Y-87958711D01*
X149026104Y-87967221D01*
X149027100Y-87975714D01*
X149028115Y-87984188D01*
X149029147Y-87992646D01*
X149030197Y-88001084D01*
X149031265Y-88009506D01*
X149032351Y-88017910D01*
X149033455Y-88026296D01*
X149034576Y-88034664D01*
X149035716Y-88043016D01*
X149036873Y-88051348D01*
X149038048Y-88059665D01*
X149039240Y-88067963D01*
X149040450Y-88076244D01*
X149041678Y-88084507D01*
X149042924Y-88092754D01*
X149044187Y-88100982D01*
X149045468Y-88109195D01*
X149046766Y-88117388D01*
X149048082Y-88125566D01*
X149049415Y-88133725D01*
X149050765Y-88141869D01*
X149052133Y-88149994D01*
X149053519Y-88158104D01*
X149054922Y-88166194D01*
X149056342Y-88174270D01*
X149057779Y-88182327D01*
X149059234Y-88190369D01*
X149060706Y-88198392D01*
X149062195Y-88206400D01*
X149063701Y-88214390D01*
X149065225Y-88222364D01*
X149066765Y-88230321D01*
X149068323Y-88238262D01*
X149069898Y-88246185D01*
X149071490Y-88254093D01*
X149073099Y-88261982D01*
X149074725Y-88269857D01*
X149076368Y-88277714D01*
X149078028Y-88285556D01*
X149079705Y-88293379D01*
X149081399Y-88301189D01*
X149083109Y-88308980D01*
X149084837Y-88316756D01*
X149086581Y-88324515D01*
X149088343Y-88332259D01*
X149090121Y-88339985D01*
X149091916Y-88347696D01*
X149093727Y-88355390D01*
X149095556Y-88363070D01*
X149097400Y-88370731D01*
X149099262Y-88378379D01*
X149101140Y-88386008D01*
X149103036Y-88393623D01*
X149104947Y-88401221D01*
X149106875Y-88408805D01*
X149108820Y-88416370D01*
X149110782Y-88423923D01*
X149112759Y-88431457D01*
X149114754Y-88438978D01*
X149116764Y-88446480D01*
X149118792Y-88453970D01*
X149120836Y-88461441D01*
X149122896Y-88468899D01*
X149124973Y-88476339D01*
X149127066Y-88483766D01*
X149129175Y-88491175D01*
X149131301Y-88498571D01*
X149133443Y-88505949D01*
X149135602Y-88513315D01*
X149137777Y-88520662D01*
X149139968Y-88527997D01*
X149142175Y-88535313D01*
X149144399Y-88542617D01*
X149146638Y-88549903D01*
X149148895Y-88557177D01*
X149151167Y-88564433D01*
X149153456Y-88571676D01*
X149155760Y-88578902D01*
X149160418Y-88593310D01*
X149165140Y-88607659D01*
X149169927Y-88621948D01*
X149174778Y-88636177D01*
X149179693Y-88650347D01*
X149184672Y-88664458D01*
X149189715Y-88678510D01*
X149194821Y-88692504D01*
X149199992Y-88706440D01*
X149205226Y-88720317D01*
X149210524Y-88734137D01*
X149215885Y-88747899D01*
X149221310Y-88761604D01*
X149226797Y-88775252D01*
X149232348Y-88788843D01*
X149237962Y-88802378D01*
X149243640Y-88815856D01*
X149249380Y-88829278D01*
X149255183Y-88842644D01*
X149261049Y-88855954D01*
X149266977Y-88869209D01*
X149272969Y-88882409D01*
X149279023Y-88895553D01*
X149285140Y-88908643D01*
X149291319Y-88921678D01*
X149297561Y-88934659D01*
X149303866Y-88947586D01*
X149310233Y-88960459D01*
X149316662Y-88973277D01*
X149323154Y-88986043D01*
X149329708Y-88998755D01*
X149336325Y-89011413D01*
X149343004Y-89024019D01*
X149349745Y-89036572D01*
X149356549Y-89049072D01*
X149363415Y-89061520D01*
X149370344Y-89073916D01*
X149377335Y-89086259D01*
X149384388Y-89098551D01*
X149391503Y-89110790D01*
X149398681Y-89122979D01*
X149405922Y-89135116D01*
X149413224Y-89147201D01*
X149420589Y-89159236D01*
X149428017Y-89171220D01*
X149435507Y-89183152D01*
X149443059Y-89195035D01*
X149450674Y-89206867D01*
X149458352Y-89218648D01*
X149466092Y-89230380D01*
X149473895Y-89242061D01*
X149481760Y-89253692D01*
X149489688Y-89265274D01*
X149497679Y-89276806D01*
X149505733Y-89288289D01*
X149513850Y-89299722D01*
X149522030Y-89311106D01*
X149530272Y-89322441D01*
X149538578Y-89333727D01*
X149546947Y-89344964D01*
X149555379Y-89356153D01*
X149563874Y-89367292D01*
X149572433Y-89378383D01*
X149581055Y-89389426D01*
X149589741Y-89400420D01*
X149598490Y-89411366D01*
X149607303Y-89422264D01*
X149616180Y-89433114D01*
X149625120Y-89443915D01*
X149634125Y-89454669D01*
X149643193Y-89465375D01*
X149652326Y-89476033D01*
X149661522Y-89486643D01*
X149670784Y-89497206D01*
X149680109Y-89507721D01*
X149689499Y-89518189D01*
X149698954Y-89528609D01*
X149708474Y-89538981D01*
X149718058Y-89549306D01*
X149727707Y-89559584D01*
X149737422Y-89569815D01*
X149747201Y-89579998D01*
X149757046Y-89590134D01*
X149766956Y-89600223D01*
X149776932Y-89610265D01*
X149786974Y-89620260D01*
X149797081Y-89630207D01*
X149807254Y-89640108D01*
X149817493Y-89649961D01*
X149827799Y-89659767D01*
X149838170Y-89669526D01*
X149848608Y-89679238D01*
X149859113Y-89688903D01*
X149869684Y-89698520D01*
X149880322Y-89708091D01*
X149891027Y-89717614D01*
X149901798Y-89727090D01*
X149912637Y-89736519D01*
X149923544Y-89745901D01*
X149934517Y-89755235D01*
X149945559Y-89764522D01*
X149956668Y-89773762D01*
X149967844Y-89782955D01*
X149979089Y-89792100D01*
X149990402Y-89801197D01*
X150001783Y-89810247D01*
X150013232Y-89819249D01*
X150024749Y-89828204D01*
X150036336Y-89837111D01*
X150047990Y-89845970D01*
X150059714Y-89854781D01*
X150071507Y-89863544D01*
X150083368Y-89872259D01*
X150095299Y-89880925D01*
X150107299Y-89889544D01*
X150119368Y-89898114D01*
X150131507Y-89906635D01*
X150143716Y-89915108D01*
X150155994Y-89923533D01*
X150168342Y-89931908D01*
X150180760Y-89940235D01*
X150193248Y-89948512D01*
X150205806Y-89956740D01*
X150218434Y-89964919D01*
X150231133Y-89973048D01*
X150243902Y-89981128D01*
X150256741Y-89989158D01*
X150269651Y-89997138D01*
X150282631Y-90005067D01*
X150295683Y-90012947D01*
X150308804Y-90020776D01*
X150321997Y-90028554D01*
X150335261Y-90036282D01*
X150348595Y-90043958D01*
X150362000Y-90051584D01*
X150375476Y-90059158D01*
X150389023Y-90066680D01*
X150402642Y-90074151D01*
X150416331Y-90081570D01*
X150430091Y-90088936D01*
X150443922Y-90096250D01*
X150457824Y-90103512D01*
X150471797Y-90110720D01*
X150485841Y-90117876D01*
X150499956Y-90124978D01*
X150514142Y-90132027D01*
X150528398Y-90139021D01*
X150542725Y-90145962D01*
X150557123Y-90152848D01*
X150571592Y-90159680D01*
X150586130Y-90166457D01*
X150600739Y-90173179D01*
X150615419Y-90179845D01*
X150630168Y-90186456D01*
X150644987Y-90193011D01*
X150659876Y-90199509D01*
X150674834Y-90205951D01*
X150689862Y-90212336D01*
X150704958Y-90218664D01*
X150720124Y-90224934D01*
X150735357Y-90231146D01*
X150750660Y-90237300D01*
X150766030Y-90243396D01*
X150781467Y-90249433D01*
X150796972Y-90255411D01*
X150812544Y-90261329D01*
X150828183Y-90267187D01*
X150843887Y-90272985D01*
X150859657Y-90278723D01*
X150875492Y-90284399D01*
X150891392Y-90290014D01*
X150907356Y-90295568D01*
X150923383Y-90301059D01*
X150939473Y-90306488D01*
X150955626Y-90311854D01*
X150971840Y-90317156D01*
X150988115Y-90322395D01*
X151004450Y-90327569D01*
X151020844Y-90332679D01*
X151037296Y-90337724D01*
X151053807Y-90342703D01*
X151070373Y-90347616D01*
X151086996Y-90352463D01*
X151103672Y-90357244D01*
X151120402Y-90361956D01*
X151137185Y-90366601D01*
X151154018Y-90371178D01*
X151170901Y-90375686D01*
X151187832Y-90380124D01*
X151204810Y-90384493D01*
X151221833Y-90388792D01*
X151238900Y-90393019D01*
X151256008Y-90397176D01*
X151273157Y-90401260D01*
X151290343Y-90405272D01*
X151307565Y-90409211D01*
X151324822Y-90413076D01*
X151342109Y-90416867D01*
X151359426Y-90420584D01*
X151376769Y-90424225D01*
X151394136Y-90427790D01*
X151411524Y-90431279D01*
X151428930Y-90434691D01*
X151446350Y-90438025D01*
X151463780Y-90441280D01*
X151481218Y-90444457D01*
X151498660Y-90447553D01*
X151516100Y-90450570D01*
X151533534Y-90453505D01*
X151550958Y-90456359D01*
X151568367Y-90459130D01*
X151585754Y-90461818D01*
X151603113Y-90464422D01*
X151620439Y-90466941D01*
X151637725Y-90469375D01*
X151654961Y-90471723D01*
X151672141Y-90473984D01*
X151689256Y-90476157D01*
X151706295Y-90478241D01*
X151723248Y-90480236D01*
X151740103Y-90482141D01*
X151756847Y-90483955D01*
X151773466Y-90485677D01*
X151789944Y-90487306D01*
X151806263Y-90488842D01*
X151822403Y-90490282D01*
X151838341Y-90491627D01*
X151854051Y-90492876D01*
X151869503Y-90494027D01*
X151884661Y-90495079D01*
X151899484Y-90496032D01*
X151913922Y-90496884D01*
X151927913Y-90497634D01*
X151941380Y-90498282D01*
X151954223Y-90498827D01*
X151966304Y-90499267D01*
X151977426Y-90499603D01*
X151987277Y-90499834D01*
X151995271Y-90499963D01*
X152000000Y-90500000D01*
X149000000Y-52000000D02*
X149000010Y-51992261D01*
X149000040Y-51984535D01*
X149000090Y-51976822D01*
X149000160Y-51969123D01*
X149000249Y-51961436D01*
X149000359Y-51953763D01*
X149000488Y-51946103D01*
X149000637Y-51938457D01*
X149000806Y-51930823D01*
X149000994Y-51923202D01*
X149001202Y-51915594D01*
X149001430Y-51907999D01*
X149001678Y-51900417D01*
X149001945Y-51892849D01*
X149002231Y-51885292D01*
X149002537Y-51877749D01*
X149002863Y-51870218D01*
X149003208Y-51862701D01*
X149003572Y-51855195D01*
X149003956Y-51847703D01*
X149004359Y-51840223D01*
X149004781Y-51832756D01*
X149005223Y-51825301D01*
X149005684Y-51817859D01*
X149006164Y-51810429D01*
X149006664Y-51803012D01*
X149007182Y-51795606D01*
X149007720Y-51788214D01*
X149008277Y-51780834D01*
X149008853Y-51773466D01*
X149009448Y-51766110D01*
X149010063Y-51758767D01*
X149010696Y-51751435D01*
X149011348Y-51744117D01*
X149012020Y-51736809D01*
X149012710Y-51729515D01*
X149013419Y-51722232D01*
X149014147Y-51714961D01*
X149014894Y-51707702D01*
X149015660Y-51700456D01*
X149016444Y-51693220D01*
X149017248Y-51685998D01*
X149018070Y-51678786D01*
X149018911Y-51671587D01*
X149019771Y-51664399D01*
X149020649Y-51657223D01*
X149021546Y-51650058D01*
X149022462Y-51642906D01*
X149023396Y-51635765D01*
X149024349Y-51628636D01*
X149025321Y-51621518D01*
X149026311Y-51614412D01*
X149027320Y-51607317D01*
X149028348Y-51600234D01*
X149029394Y-51593161D01*
X149030458Y-51586102D01*
X149031541Y-51579052D01*
X149032642Y-51572015D01*
X149033762Y-51564987D01*
X149034901Y-51557973D01*
X149036058Y-51550968D01*
X149037233Y-51543976D01*
X149038426Y-51536993D01*
X149039638Y-51530023D01*
X149040868Y-51523063D01*
X149042117Y-51516115D01*
X149043384Y-51509177D01*
X149044669Y-51502252D01*
X149045973Y-51495335D01*
X149047294Y-51488432D01*
X149048634Y-51481537D01*
X149049992Y-51474655D01*
X149051369Y-51467782D01*
X149052764Y-51460922D01*
X149054177Y-51454070D01*
X149055608Y-51447232D01*
X149057057Y-51440402D01*
X149058524Y-51433584D01*
X149061514Y-51419979D01*
X149064575Y-51406417D01*
X149067710Y-51392896D01*
X149070916Y-51379417D01*
X149074195Y-51365980D01*
X149077546Y-51352584D01*
X149080969Y-51339229D01*
X149084464Y-51325915D01*
X149088031Y-51312641D01*
X149091669Y-51299407D01*
X149095380Y-51286214D01*
X149099162Y-51273060D01*
X149103017Y-51259946D01*
X149106943Y-51246871D01*
X149110940Y-51233836D01*
X149115009Y-51220839D01*
X149119150Y-51207881D01*
X149123362Y-51194961D01*
X149127646Y-51182080D01*
X149132002Y-51169236D01*
X149136429Y-51156430D01*
X149140927Y-51143662D01*
X149145498Y-51130931D01*
X149150139Y-51118237D01*
X149154853Y-51105579D01*
X149159638Y-51092959D01*
X149164494Y-51080375D01*
X149169422Y-51067827D01*
X149174422Y-51055315D01*
X149179494Y-51042839D01*
X149184637Y-51030399D01*
X149189852Y-51017994D01*
X149195139Y-51005625D01*
X149200498Y-50993290D01*
X149205929Y-50980990D01*
X149211432Y-50968725D01*
X149217006Y-50956494D01*
X149222654Y-50944298D01*
X149228373Y-50932136D01*
X149234165Y-50920007D01*
X149240029Y-50907913D01*
X149245965Y-50895852D01*
X149251974Y-50883824D01*
X149258056Y-50871830D01*
X149264211Y-50859868D01*
X149270439Y-50847940D01*
X149276739Y-50836044D01*
X149283113Y-50824181D01*
X149289560Y-50812350D01*
X149296081Y-50800552D01*
X149302675Y-50788786D01*
X149309343Y-50777051D01*
X149316084Y-50765349D01*
X149322900Y-50753678D01*
X149329789Y-50742038D01*
X149336753Y-50730430D01*
X149343791Y-50718854D01*
X149350904Y-50707308D01*
X149358092Y-50695793D01*
X149365354Y-50684310D01*
X149372692Y-50672857D01*
X149380104Y-50661434D01*
X149387593Y-50650043D01*
X149395157Y-50638681D01*
X149402796Y-50627350D01*
X149410512Y-50616049D01*
X149418304Y-50604778D01*
X149426172Y-50593537D01*
X149434117Y-50582326D01*
X149442139Y-50571145D01*
X149450238Y-50559993D01*
X149458414Y-50548871D01*
X149466668Y-50537778D01*
X149474999Y-50526715D01*
X149483408Y-50515681D01*
X149491896Y-50504676D01*
X149500461Y-50493701D01*
X149509106Y-50482755D01*
X149517829Y-50471837D01*
X149526631Y-50460949D01*
X149535513Y-50450090D01*
X149544475Y-50439259D01*
X149553516Y-50428457D01*
X149562637Y-50417684D01*
X149571839Y-50406940D01*
X149581122Y-50396224D01*
X149590485Y-50385537D01*
X149599930Y-50374878D01*
X149609456Y-50364248D01*
X149619064Y-50353646D01*
X149628754Y-50343073D01*
X149638526Y-50332528D01*
X149648381Y-50322012D01*
X149658318Y-50311524D01*
X149668339Y-50301064D01*
X149678444Y-50290633D01*
X149688632Y-50280230D01*
X149698904Y-50269855D01*
X149709261Y-50259509D01*
X149719702Y-50249191D01*
X149730228Y-50238901D01*
X149740840Y-50228640D01*
X149751537Y-50218407D01*
X149762321Y-50208202D01*
X149773190Y-50198026D01*
X149784146Y-50187878D01*
X149795189Y-50177759D01*
X149806319Y-50167668D01*
X149817537Y-50157605D01*
X149828842Y-50147571D01*
X149840236Y-50137566D01*
X149851718Y-50127589D01*
X149863289Y-50117640D01*
X149874949Y-50107721D01*
X149886699Y-50097830D01*
X149898539Y-50087968D01*
X149910469Y-50078134D01*
X149922489Y-50068330D01*
X149934600Y-50058554D01*
X149946803Y-50048808D01*
X149959097Y-50039090D01*
X149971483Y-50029402D01*
X149983961Y-50019743D01*
X149996532Y-50010114D01*
X150009196Y-50000514D01*
X150021953Y-49990943D01*
X150034804Y-49981402D01*
X150047748Y-49971890D01*
X150060788Y-49962409D01*
X150073921Y-49952957D01*
X150087150Y-49943535D01*
X150100475Y-49934144D01*
X150113895Y-49924782D01*
X150127411Y-49915451D01*
X150141024Y-49906150D01*
X150154733Y-49896880D01*
X150168540Y-49887641D01*
X150182444Y-49878432D01*
X150196446Y-49869255D01*
X150210547Y-49860108D01*
X150224746Y-49850993D01*
X150239043Y-49841909D01*
X150253441Y-49832857D01*
X150267937Y-49823836D01*
X150282534Y-49814848D01*
X150297231Y-49805891D01*
X150312029Y-49796966D01*
X150326928Y-49788074D01*
X150341928Y-49779214D01*
X150357030Y-49770387D01*
X150372234Y-49761593D01*
X150387540Y-49752832D01*
X150402949Y-49744103D01*
X150418461Y-49735409D01*
X150434077Y-49726748D01*
X150449796Y-49718120D01*
X150465619Y-49709527D01*
X150481547Y-49700968D01*
X150497579Y-49692443D01*
X150513717Y-49683953D01*
X150529959Y-49675497D01*
X150546308Y-49667077D01*
X150562762Y-49658692D01*
X150579323Y-49650342D01*
X150595990Y-49642028D01*
X150612764Y-49633750D01*
X150629645Y-49625508D01*
X150646633Y-49617302D01*
X150663730Y-49609133D01*
X150680934Y-49601001D01*
X150698247Y-49592906D01*
X150715668Y-49584848D01*
X150733198Y-49576828D01*
X150750837Y-49568846D01*
X150768585Y-49560902D01*
X150786443Y-49552996D01*
X150804411Y-49545129D01*
X150822488Y-49537301D01*
X150840676Y-49529512D01*
X150858975Y-49521763D01*
X150877384Y-49514053D01*
X150895904Y-49506383D01*
X150914536Y-49498754D01*
X150933278Y-49491166D01*
X150952132Y-49483618D01*
X150971098Y-49476112D01*
X150990175Y-49468647D01*
X151009364Y-49461224D01*
X151028666Y-49453843D01*
X151048079Y-49446505D01*
X151067605Y-49439209D01*
X151087243Y-49431957D01*
X151106994Y-49424748D01*
X151126858Y-49417583D01*
X151146834Y-49410462D01*
X151166923Y-49403386D01*
X151187124Y-49396354D01*
X151207439Y-49389368D01*
X151227866Y-49382427D01*
X151248406Y-49375532D01*
X151269059Y-49368683D01*
X151289824Y-49361881D01*
X151310702Y-49355126D01*
X151331693Y-49348418D01*
X151352796Y-49341758D01*
X151374012Y-49335146D01*
X151395340Y-49328582D01*
X151416780Y-49322068D01*
X151438332Y-49315602D01*
X151459996Y-49309187D01*
X151481771Y-49302821D01*
X151503658Y-49296506D01*
X151525655Y-49290242D01*
X151547763Y-49284029D01*
X151569982Y-49277868D01*
X151592311Y-49271759D01*
X151614749Y-49265703D01*
X151637296Y-49259699D01*
X151659953Y-49253750D01*
X151682717Y-49247854D01*
X151705589Y-49242012D01*
X151728569Y-49236225D01*
X151751655Y-49230494D01*
X151774847Y-49224818D01*
X151798144Y-49219198D01*
X151821546Y-49213635D01*
X151845051Y-49208129D01*
X151868660Y-49202681D01*
X151892370Y-49197291D01*
X151916182Y-49191960D01*
X151940094Y-49186687D01*
X151964105Y-49181474D01*
X151988214Y-49176322D01*
X152012420Y-49171230D01*
X152036721Y-49166199D01*
X152061117Y-49161229D01*
X152085606Y-49156322D01*
X152110187Y-49151478D01*
X152134857Y-49146697D01*
X152159616Y-49141979D01*
X152184462Y-49137327D01*
X152209392Y-49132739D01*
X152234406Y-49128216D01*
X152259500Y-49123760D01*
X152284673Y-49119370D01*
X152309923Y-49115047D01*
X152335247Y-49110792D01*
X152360642Y-49106606D01*
X152386107Y-49102489D01*
X152411638Y-49098441D01*
X152437232Y-49094464D01*
X152462887Y-49090557D01*
X152488598Y-49086722D01*
X152514363Y-49082959D01*
X152540177Y-49079269D01*
X152566037Y-49075653D01*
X152591939Y-49072110D01*
X152617878Y-49068643D01*
X152643849Y-49065250D01*
X152669848Y-49061935D01*
X152695869Y-49058695D01*
X152721906Y-49055534D01*
X152747954Y-49052451D01*
X152774006Y-49049447D01*
X152800055Y-49046522D01*
X152826094Y-49043678D01*
X152852115Y-49040916D01*
X152878109Y-49038235D01*
X152904068Y-49035638D01*
X152929981Y-49033124D01*
X152955839Y-49030694D01*
X152981629Y-49028350D01*
X153007339Y-49026092D01*
X153032956Y-49023920D01*
X153058465Y-49021837D01*
X153083849Y-49019842D01*
X153109093Y-49017937D01*
X153134175Y-49016122D01*
X153159074Y-49014399D01*
X153183767Y-49012768D01*
X153208226Y-49011230D01*
X153232422Y-49009786D01*
X153256320Y-49008438D01*
X153279882Y-49007186D01*
X153303061Y-49006031D01*
X153325807Y-49004974D01*
X153348057Y-49004017D01*
X153369735Y-49003159D01*
X153390752Y-49002404D01*
X153410991Y-49001750D01*
X153430305Y-49001200D01*
X153448492Y-49000754D01*
X153465263Y-49000413D01*
X153480160Y-49000176D01*
X153492342Y-49000042D01*
X153500000Y-49000000D01*
X190500000Y-52000000D02*
X190499990Y-51990523D01*
X190499960Y-51981066D01*
X190499910Y-51971629D01*
X190499840Y-51962212D01*
X190499751Y-51952815D01*
X190499642Y-51943438D01*
X190499512Y-51934080D01*
X190499364Y-51924742D01*
X190499195Y-51915424D01*
X190499007Y-51906126D01*
X190498799Y-51896847D01*
X190498572Y-51887587D01*
X190498325Y-51878347D01*
X190498059Y-51869127D01*
X190497773Y-51859926D01*
X190497468Y-51850745D01*
X190497144Y-51841582D01*
X190496800Y-51832440D01*
X190496437Y-51823316D01*
X190496055Y-51814211D01*
X190495654Y-51805126D01*
X190495233Y-51796060D01*
X190494794Y-51787013D01*
X190494335Y-51777985D01*
X190493857Y-51768976D01*
X190493360Y-51759987D01*
X190492845Y-51751015D01*
X190492310Y-51742064D01*
X190491757Y-51733130D01*
X190491184Y-51724216D01*
X190490593Y-51715320D01*
X190489983Y-51706444D01*
X190489354Y-51697585D01*
X190488707Y-51688746D01*
X190488041Y-51679925D01*
X190487356Y-51671123D01*
X190486653Y-51662339D01*
X190485931Y-51653574D01*
X190485191Y-51644827D01*
X190484432Y-51636099D01*
X190483654Y-51627388D01*
X190482859Y-51618697D01*
X190482045Y-51610023D01*
X190481212Y-51601368D01*
X190480361Y-51592731D01*
X190479492Y-51584113D01*
X190478605Y-51575511D01*
X190477699Y-51566929D01*
X190476776Y-51558364D01*
X190475834Y-51549818D01*
X190474874Y-51541289D01*
X190473896Y-51532779D01*
X190472900Y-51524286D01*
X190471885Y-51515812D01*
X190470853Y-51507354D01*
X190469803Y-51498916D01*
X190468735Y-51490494D01*
X190467649Y-51482090D01*
X190466545Y-51473704D01*
X190465424Y-51465336D01*
X190464284Y-51456984D01*
X190463127Y-51448652D01*
X190461952Y-51440335D01*
X190460760Y-51432037D01*
X190459550Y-51423756D01*
X190458322Y-51415493D01*
X190457076Y-51407246D01*
X190455813Y-51399018D01*
X190454532Y-51390805D01*
X190453234Y-51382612D01*
X190451918Y-51374434D01*
X190450585Y-51366275D01*
X190449235Y-51358131D01*
X190447867Y-51350006D01*
X190446481Y-51341896D01*
X190445078Y-51333806D01*
X190443658Y-51325730D01*
X190442221Y-51317673D01*
X190440766Y-51309631D01*
X190439294Y-51301608D01*
X190437805Y-51293600D01*
X190436299Y-51285610D01*
X190434775Y-51277636D01*
X190433235Y-51269679D01*
X190431677Y-51261738D01*
X190430102Y-51253815D01*
X190428510Y-51245907D01*
X190426901Y-51238018D01*
X190425275Y-51230143D01*
X190423632Y-51222286D01*
X190421972Y-51214444D01*
X190420295Y-51206621D01*
X190418601Y-51198811D01*
X190416891Y-51191020D01*
X190415163Y-51183244D01*
X190413419Y-51175485D01*
X190411657Y-51167741D01*
X190409879Y-51160015D01*
X190408084Y-51152304D01*
X190406273Y-51144610D01*
X190404444Y-51136930D01*
X190402600Y-51129269D01*
X190400738Y-51121621D01*
X190398860Y-51113992D01*
X190396964Y-51106377D01*
X190395053Y-51098779D01*
X190393125Y-51091195D01*
X190391180Y-51083630D01*
X190389218Y-51076077D01*
X190387241Y-51068543D01*
X190385246Y-51061022D01*
X190383236Y-51053520D01*
X190381208Y-51046030D01*
X190379164Y-51038559D01*
X190377104Y-51031101D01*
X190375027Y-51023661D01*
X190372934Y-51016234D01*
X190370825Y-51008825D01*
X190368699Y-51001429D01*
X190366557Y-50994051D01*
X190364398Y-50986685D01*
X190362223Y-50979338D01*
X190360032Y-50972003D01*
X190357825Y-50964687D01*
X190355601Y-50957383D01*
X190353362Y-50950097D01*
X190351105Y-50942823D01*
X190348833Y-50935567D01*
X190346544Y-50928324D01*
X190344240Y-50921098D01*
X190339582Y-50906690D01*
X190334860Y-50892341D01*
X190330073Y-50878052D01*
X190325222Y-50863823D01*
X190320307Y-50849653D01*
X190315328Y-50835542D01*
X190310285Y-50821490D01*
X190305179Y-50807496D01*
X190300008Y-50793560D01*
X190294774Y-50779683D01*
X190289476Y-50765863D01*
X190284115Y-50752101D01*
X190278690Y-50738396D01*
X190273203Y-50724748D01*
X190267652Y-50711157D01*
X190262038Y-50697622D01*
X190256360Y-50684144D01*
X190250620Y-50670722D01*
X190244817Y-50657356D01*
X190238951Y-50644046D01*
X190233023Y-50630791D01*
X190227031Y-50617591D01*
X190220977Y-50604447D01*
X190214860Y-50591357D01*
X190208681Y-50578322D01*
X190202439Y-50565341D01*
X190196134Y-50552414D01*
X190189767Y-50539541D01*
X190183338Y-50526723D01*
X190176846Y-50513957D01*
X190170292Y-50501245D01*
X190163675Y-50488587D01*
X190156996Y-50475981D01*
X190150255Y-50463428D01*
X190143451Y-50450928D01*
X190136585Y-50438480D01*
X190129656Y-50426084D01*
X190122665Y-50413741D01*
X190115612Y-50401449D01*
X190108497Y-50389210D01*
X190101319Y-50377021D01*
X190094078Y-50364884D01*
X190086776Y-50352799D01*
X190079411Y-50340764D01*
X190071983Y-50328780D01*
X190064493Y-50316848D01*
X190056941Y-50304965D01*
X190049326Y-50293133D01*
X190041648Y-50281352D01*
X190033908Y-50269620D01*
X190026105Y-50257939D01*
X190018240Y-50246308D01*
X190010312Y-50234726D01*
X190002321Y-50223194D01*
X189994267Y-50211711D01*
X189986150Y-50200278D01*
X189977970Y-50188894D01*
X189969728Y-50177559D01*
X189961422Y-50166273D01*
X189953053Y-50155036D01*
X189944621Y-50143847D01*
X189936126Y-50132708D01*
X189927567Y-50121617D01*
X189918945Y-50110574D01*
X189910259Y-50099580D01*
X189901510Y-50088634D01*
X189892697Y-50077736D01*
X189883820Y-50066886D01*
X189874880Y-50056085D01*
X189865875Y-50045331D01*
X189856807Y-50034625D01*
X189847674Y-50023967D01*
X189838478Y-50013357D01*
X189829216Y-50002794D01*
X189819891Y-49992279D01*
X189810501Y-49981811D01*
X189801046Y-49971391D01*
X189791526Y-49961019D01*
X189781942Y-49950694D01*
X189772293Y-49940416D01*
X189762578Y-49930185D01*
X189752799Y-49920002D01*
X189742954Y-49909866D01*
X189733044Y-49899777D01*
X189723068Y-49889735D01*
X189713026Y-49879740D01*
X189702919Y-49869793D01*
X189692746Y-49859892D01*
X189682507Y-49850039D01*
X189672201Y-49840233D01*
X189661830Y-49830474D01*
X189651392Y-49820762D01*
X189640887Y-49811097D01*
X189630316Y-49801480D01*
X189619678Y-49791909D01*
X189608973Y-49782386D01*
X189598202Y-49772910D01*
X189587363Y-49763481D01*
X189576456Y-49754099D01*
X189565483Y-49744765D01*
X189554441Y-49735478D01*
X189543332Y-49726238D01*
X189532156Y-49717045D01*
X189520911Y-49707900D01*
X189509598Y-49698803D01*
X189498217Y-49689753D01*
X189486768Y-49680751D01*
X189475251Y-49671796D01*
X189463664Y-49662889D01*
X189452010Y-49654030D01*
X189440286Y-49645219D01*
X189428493Y-49636456D01*
X189416632Y-49627741D01*
X189404701Y-49619075D01*
X189392701Y-49610456D01*
X189380632Y-49601886D01*
X189368493Y-49593365D01*
X189356284Y-49584892D01*
X189344006Y-49576467D01*
X189331658Y-49568092D01*
X189319240Y-49559765D01*
X189306752Y-49551488D01*
X189294194Y-49543260D01*
X189281566Y-49535081D01*
X189268867Y-49526952D01*
X189256098Y-49518872D01*
X189243259Y-49510842D01*
X189230349Y-49502862D01*
X189217369Y-49494933D01*
X189204317Y-49487053D01*
X189191196Y-49479224D01*
X189178003Y-49471446D01*
X189164739Y-49463718D01*
X189151405Y-49456042D01*
X189138000Y-49448416D01*
X189124524Y-49440842D01*
X189110977Y-49433320D01*
X189097358Y-49425849D01*
X189083669Y-49418430D01*
X189069909Y-49411064D01*
X189056078Y-49403750D01*
X189042176Y-49396488D01*
X189028203Y-49389280D01*
X189014159Y-49382124D01*
X189000044Y-49375022D01*
X188985858Y-49367973D01*
X188971602Y-49360979D01*
X188957275Y-49354038D01*
X188942877Y-49347152D01*
X188928408Y-49340320D01*
X188913870Y-49333543D01*
X188899261Y-49326821D01*
X188884581Y-49320155D01*
X188869832Y-49313544D01*
X188855013Y-49306989D01*
X188840124Y-49300491D01*
X188825166Y-49294049D01*
X188810138Y-49287664D01*
X188795042Y-49281336D01*
X188779876Y-49275066D01*
X188764643Y-49268854D01*
X188749340Y-49262700D01*
X188733970Y-49256604D01*
X188718533Y-49250567D01*
X188703028Y-49244589D01*
X188687456Y-49238671D01*
X188671817Y-49232813D01*
X188656113Y-49227015D01*
X188640343Y-49221277D01*
X188624508Y-49215601D01*
X188608608Y-49209986D01*
X188592644Y-49204432D01*
X188576617Y-49198941D01*
X188560527Y-49193512D01*
X188544374Y-49188146D01*
X188528160Y-49182844D01*
X188511885Y-49177605D01*
X188495550Y-49172431D01*
X188479156Y-49167321D01*
X188462704Y-49162276D01*
X188446193Y-49157297D01*
X188429627Y-49152384D01*
X188413004Y-49147537D01*
X188396328Y-49142756D01*
X188379598Y-49138044D01*
X188362815Y-49133399D01*
X188345982Y-49128822D01*
X188329099Y-49124314D01*
X188312168Y-49119876D01*
X188295190Y-49115507D01*
X188278167Y-49111208D01*
X188261100Y-49106981D01*
X188243992Y-49102824D01*
X188226843Y-49098740D01*
X188209657Y-49094728D01*
X188192435Y-49090789D01*
X188175178Y-49086924D01*
X188157891Y-49083133D01*
X188140574Y-49079416D01*
X188123231Y-49075775D01*
X188105864Y-49072210D01*
X188088476Y-49068721D01*
X188071070Y-49065309D01*
X188053650Y-49061975D01*
X188036220Y-49058720D01*
X188018782Y-49055543D01*
X188001340Y-49052447D01*
X187983900Y-49049430D01*
X187966466Y-49046495D01*
X187949042Y-49043641D01*
X187931633Y-49040870D01*
X187914246Y-49038182D01*
X187896887Y-49035578D01*
X187879561Y-49033059D01*
X187862275Y-49030625D01*
X187845039Y-49028277D01*
X187827859Y-49026016D01*
X187810744Y-49023843D01*
X187793705Y-49021759D01*
X187776752Y-49019764D01*
X187759897Y-49017859D01*
X187743153Y-49016045D01*
X187726534Y-49014323D01*
X187710056Y-49012694D01*
X187693737Y-49011158D01*
X187677597Y-49009718D01*
X187661659Y-49008373D01*
X187645949Y-49007124D01*
X187630497Y-49005973D01*
X187615339Y-49004921D01*
X187600516Y-49003968D01*
X187586078Y-49003116D01*
X187572087Y-49002366D01*
X187558620Y-49001718D01*
X187545777Y-49001173D01*
X187533696Y-49000733D01*
X187522574Y-49000397D01*
X187512723Y-49000166D01*
X187504729Y-49000037D01*
X187500000Y-49000000D01*
D11*
X149000000Y-87500000D02*
X149000000Y-52000000D01*
X187500000Y-49000000D02*
X153500000Y-49000000D01*
X190500000Y-87500000D02*
X190500000Y-52000000D01*
X152500000Y-90500000D02*
X152000000Y-90500000D01*
X153000000Y-90500000D02*
X152500000Y-90500000D01*
X188000000Y-90500000D02*
X153000000Y-90500000D01*
M02*
