%TF.GenerationSoftware,KiCad,Pcbnew,9.0.4*%
%TF.CreationDate,2025-09-01T01:35:23+05:30*%
%TF.ProjectId,L298,4c323938-2e6b-4696-9361-645f70636258,rev?*%
%TF.SameCoordinates,Original*%
%TF.FileFunction,Copper,L1,Top*%
%TF.FilePolarity,Positive*%
%FSLAX46Y46*%
G04 Gerber Fmt 4.6, Leading zero omitted, Abs format (unit mm)*
G04 Created by KiCad (PCBNEW 9.0.4) date 2025-09-01 01:35:23*
%MOMM*%
%LPD*%
G01*
G04 APERTURE LIST*
G04 Aperture macros list*
%AMRoundRect*
0 Rectangle with rounded corners*
0 $1 Rounding radius*
0 $2 $3 $4 $5 $6 $7 $8 $9 X,Y pos of 4 corners*
0 Add a 4 corners polygon primitive as box body*
4,1,4,$2,$3,$4,$5,$6,$7,$8,$9,$2,$3,0*
0 Add four circle primitives for the rounded corners*
1,1,$1+$1,$2,$3*
1,1,$1+$1,$4,$5*
1,1,$1+$1,$6,$7*
1,1,$1+$1,$8,$9*
0 Add four rect primitives between the rounded corners*
20,1,$1+$1,$2,$3,$4,$5,0*
20,1,$1+$1,$4,$5,$6,$7,0*
20,1,$1+$1,$6,$7,$8,$9,0*
20,1,$1+$1,$8,$9,$2,$3,0*%
G04 Aperture macros list end*
%TA.AperFunction,ComponentPad*%
%ADD10C,1.800000*%
%TD*%
%TA.AperFunction,ComponentPad*%
%ADD11R,1.800000X1.800000*%
%TD*%
%TA.AperFunction,ComponentPad*%
%ADD12C,1.400000*%
%TD*%
%TA.AperFunction,SMDPad,CuDef*%
%ADD13RoundRect,0.250000X-0.425000X-1.075000X0.425000X-1.075000X0.425000X1.075000X-0.425000X1.075000X0*%
%TD*%
%TA.AperFunction,ComponentPad*%
%ADD14R,1.700000X1.700000*%
%TD*%
%TA.AperFunction,ComponentPad*%
%ADD15C,1.700000*%
%TD*%
%TA.AperFunction,SMDPad,CuDef*%
%ADD16RoundRect,0.250000X-0.262500X-0.450000X0.262500X-0.450000X0.262500X0.450000X-0.262500X0.450000X0*%
%TD*%
%TA.AperFunction,SMDPad,CuDef*%
%ADD17RoundRect,0.243750X-0.243750X-0.456250X0.243750X-0.456250X0.243750X0.456250X-0.243750X0.456250X0*%
%TD*%
%TA.AperFunction,ComponentPad*%
%ADD18RoundRect,0.249999X-0.850001X-0.850001X0.850001X-0.850001X0.850001X0.850001X-0.850001X0.850001X0*%
%TD*%
%TA.AperFunction,ComponentPad*%
%ADD19C,2.200000*%
%TD*%
%TA.AperFunction,ComponentPad*%
%ADD20RoundRect,0.249999X-0.850001X0.850001X-0.850001X-0.850001X0.850001X-0.850001X0.850001X0.850001X0*%
%TD*%
%TA.AperFunction,SMDPad,CuDef*%
%ADD21RoundRect,0.250000X-0.850000X-0.350000X0.850000X-0.350000X0.850000X0.350000X-0.850000X0.350000X0*%
%TD*%
%TA.AperFunction,SMDPad,CuDef*%
%ADD22RoundRect,0.249997X-2.950003X-2.650003X2.950003X-2.650003X2.950003X2.650003X-2.950003X2.650003X0*%
%TD*%
%TA.AperFunction,ComponentPad*%
%ADD23C,1.200000*%
%TD*%
%TA.AperFunction,ComponentPad*%
%ADD24RoundRect,0.249999X0.850001X-0.850001X0.850001X0.850001X-0.850001X0.850001X-0.850001X-0.850001X0*%
%TD*%
%TA.AperFunction,ViaPad*%
%ADD25C,0.600000*%
%TD*%
%TA.AperFunction,Conductor*%
%ADD26C,0.200000*%
%TD*%
G04 APERTURE END LIST*
D10*
%TO.P,U1,15,SENSE_B*%
%TO.N,GND*%
X178810000Y-63080000D03*
%TO.P,U1,14,OUT4*%
%TO.N,Net-(D4-A)*%
X177540000Y-58000000D03*
%TO.P,U1,13,OUT3*%
%TO.N,Net-(D3-A)*%
X176270000Y-63080000D03*
%TO.P,U1,12,IN4*%
%TO.N,Net-(J5-Pin_4)*%
X175000000Y-58000000D03*
%TO.P,U1,11,EnB*%
%TO.N,/ENB*%
X173730000Y-63080000D03*
%TO.P,U1,10,IN3*%
%TO.N,Net-(J5-Pin_3)*%
X172460000Y-58000000D03*
%TO.P,U1,9,Vss*%
%TO.N,+12V*%
X171190000Y-63080000D03*
%TO.P,U1,8,GND*%
%TO.N,GND*%
X169920000Y-58000000D03*
%TO.P,U1,7,IN2*%
%TO.N,Net-(J5-Pin_2)*%
X168650000Y-63080000D03*
%TO.P,U1,6,EnA*%
%TO.N,/ENA*%
X167380000Y-58000000D03*
%TO.P,U1,5,IN1*%
%TO.N,Net-(J5-Pin_1)*%
X166110000Y-63080000D03*
%TO.P,U1,4,Vs*%
%TO.N,+5V*%
X164840000Y-58000000D03*
%TO.P,U1,3,OUT2*%
%TO.N,Net-(D2-A)*%
X163570000Y-63080000D03*
%TO.P,U1,2,OUT1*%
%TO.N,Net-(D1-A)*%
X162300000Y-58000000D03*
D11*
%TO.P,U1,1,SENSE_A*%
%TO.N,GND*%
X161030000Y-63080000D03*
%TD*%
D12*
%TO.P,JP3,1,A*%
%TO.N,/ENB*%
X163500000Y-77500000D03*
%TO.P,JP3,2,B*%
%TO.N,unconnected-(JP3-B-Pad2)*%
X163500000Y-80040000D03*
%TD*%
%TO.P,JP2,1,A*%
%TO.N,+5V*%
X181500000Y-83750000D03*
%TO.P,JP2,2,B*%
%TO.N,unconnected-(JP2-B-Pad2)*%
X181500000Y-86290000D03*
%TD*%
%TO.P,JP1,1,A*%
%TO.N,/ENA*%
X168000000Y-83750000D03*
%TO.P,JP1,2,B*%
%TO.N,unconnected-(JP1-B-Pad2)*%
X168000000Y-86290000D03*
%TD*%
D13*
%TO.P,D1,1,K*%
%TO.N,+5V*%
X152250000Y-58710000D03*
%TO.P,D1,2,A*%
%TO.N,Net-(D1-A)*%
X156750000Y-58710000D03*
%TD*%
%TO.P,D5,2,A*%
%TO.N,GND*%
X186750000Y-57420000D03*
%TO.P,D5,1,K*%
%TO.N,Net-(D1-A)*%
X182250000Y-57420000D03*
%TD*%
%TO.P,D6,2,A*%
%TO.N,GND*%
X186750000Y-61710000D03*
%TO.P,D6,1,K*%
%TO.N,Net-(D2-A)*%
X182250000Y-61710000D03*
%TD*%
%TO.P,D7,2,A*%
%TO.N,GND*%
X186750000Y-66000000D03*
%TO.P,D7,1,K*%
%TO.N,Net-(D3-A)*%
X182250000Y-66000000D03*
%TD*%
%TO.P,D8,2,A*%
%TO.N,GND*%
X186750000Y-70290000D03*
%TO.P,D8,1,K*%
%TO.N,Net-(D4-A)*%
X182250000Y-70290000D03*
%TD*%
%TO.P,D4,2,A*%
%TO.N,Net-(D4-A)*%
X156750000Y-71580000D03*
%TO.P,D4,1,K*%
%TO.N,+5V*%
X152250000Y-71580000D03*
%TD*%
%TO.P,D2,2,A*%
%TO.N,Net-(D2-A)*%
X156750000Y-63000000D03*
%TO.P,D2,1,K*%
%TO.N,+5V*%
X152250000Y-63000000D03*
%TD*%
%TO.P,D3,2,A*%
%TO.N,Net-(D3-A)*%
X156750000Y-67290000D03*
%TO.P,D3,1,K*%
%TO.N,+5V*%
X152250000Y-67290000D03*
%TD*%
D14*
%TO.P,J5,1,Pin_1*%
%TO.N,Net-(J5-Pin_1)*%
X170960000Y-85000000D03*
D15*
%TO.P,J5,2,Pin_2*%
%TO.N,Net-(J5-Pin_2)*%
X173500000Y-85000000D03*
%TO.P,J5,3,Pin_3*%
%TO.N,Net-(J5-Pin_3)*%
X176040000Y-85000000D03*
%TO.P,J5,4,Pin_4*%
%TO.N,Net-(J5-Pin_4)*%
X178580000Y-85000000D03*
%TD*%
D16*
%TO.P,R3,1*%
%TO.N,Net-(U2-VO)*%
X167175000Y-78000000D03*
%TO.P,R3,2*%
%TO.N,Net-(L3-A)*%
X169000000Y-78000000D03*
%TD*%
%TO.P,R2,1*%
%TO.N,Net-(D3-A)*%
X177500000Y-79500000D03*
%TO.P,R2,2*%
%TO.N,Net-(L2-A)*%
X179325000Y-79500000D03*
%TD*%
%TO.P,R1,1*%
%TO.N,Net-(D1-A)*%
X159500000Y-73500000D03*
%TO.P,R1,2*%
%TO.N,Net-(L1-A)*%
X161325000Y-73500000D03*
%TD*%
D17*
%TO.P,L3,1,K*%
%TO.N,+5V*%
X166562500Y-80500000D03*
%TO.P,L3,2,A*%
%TO.N,Net-(L3-A)*%
X168437500Y-80500000D03*
%TD*%
%TO.P,L2,1,K*%
%TO.N,Net-(D4-A)*%
X177562500Y-75500000D03*
%TO.P,L2,2,A*%
%TO.N,Net-(L2-A)*%
X179437500Y-75500000D03*
%TD*%
%TO.P,L1,1,K*%
%TO.N,Net-(D2-A)*%
X159562500Y-76000000D03*
%TO.P,L1,2,A*%
%TO.N,Net-(L1-A)*%
X161437500Y-76000000D03*
%TD*%
D18*
%TO.P,J3,1,Pin_1*%
%TO.N,+12V*%
X157500000Y-85000000D03*
D19*
%TO.P,J3,2,Pin_2*%
%TO.N,GND*%
X160040000Y-85000000D03*
%TO.P,J3,3,Pin_3*%
%TO.N,+5V*%
X162580000Y-85000000D03*
%TD*%
D20*
%TO.P,J1,1,Pin_1*%
%TO.N,Net-(D1-A)*%
X154807500Y-76460000D03*
D19*
%TO.P,J1,2,Pin_2*%
%TO.N,Net-(D2-A)*%
X154807500Y-79000000D03*
%TD*%
D21*
%TO.P,U2,1,VI*%
%TO.N,+12V*%
X168875000Y-67292500D03*
D22*
%TO.P,U2,2,GND*%
%TO.N,GND*%
X175175000Y-69572500D03*
D21*
%TO.P,U2,3,VO*%
%TO.N,Net-(U2-VO)*%
X168875000Y-71852500D03*
%TD*%
D23*
%TO.P,C2,1*%
%TO.N,+5V*%
X172000000Y-80000000D03*
%TO.P,C2,2*%
%TO.N,GND*%
X173500000Y-80000000D03*
%TD*%
%TO.P,C1,1*%
%TO.N,Net-(U2-VO)*%
X162500000Y-70000000D03*
%TO.P,C1,2*%
%TO.N,+5V*%
X164000000Y-70000000D03*
%TD*%
D24*
%TO.P,J2,1,Pin_1*%
%TO.N,Net-(D3-A)*%
X185500000Y-78540000D03*
D19*
%TO.P,J2,2,Pin_2*%
%TO.N,Net-(D4-A)*%
X185500000Y-76000000D03*
%TD*%
D25*
%TO.N,Net-(U2-VO)*%
X166500000Y-68500000D03*
%TO.N,Net-(D3-A)*%
X157000000Y-65000000D03*
X180000000Y-65000000D03*
%TO.N,Net-(D2-A)*%
X158500000Y-63000000D03*
X180500000Y-59500000D03*
%TO.N,Net-(D4-A)*%
X179600000Y-68000000D03*
%TO.N,/ENA*%
X168703057Y-59499000D03*
%TO.N,Net-(D4-A)*%
X165500000Y-60500000D03*
%TO.N,+12V*%
X166000000Y-76500000D03*
%TO.N,/ENA*%
X171000000Y-61500000D03*
%TO.N,Net-(D2-A)*%
X159000000Y-78500000D03*
X158000000Y-65000000D03*
%TO.N,Net-(D1-A)*%
X159500000Y-70500000D03*
%TO.N,Net-(J5-Pin_3)*%
X173000000Y-82500000D03*
%TO.N,GND*%
X175531000Y-65500000D03*
%TD*%
D26*
%TO.N,Net-(U2-VO)*%
X166500000Y-69477500D02*
X168875000Y-71852500D01*
X166500000Y-68500000D02*
X166500000Y-69477500D01*
%TO.N,+12V*%
X165899000Y-68251057D02*
X165899000Y-76399000D01*
X165899000Y-76399000D02*
X166000000Y-76500000D01*
X166857557Y-67292500D02*
X165899000Y-68251057D01*
X168875000Y-67292500D02*
X166857557Y-67292500D01*
%TO.N,Net-(D3-A)*%
X156750000Y-65250000D02*
X156750000Y-67290000D01*
X157000000Y-65000000D02*
X156750000Y-65250000D01*
X181250000Y-65000000D02*
X182250000Y-66000000D01*
X180000000Y-65000000D02*
X181250000Y-65000000D01*
%TO.N,Net-(D4-A)*%
X180500000Y-68540000D02*
X182250000Y-70290000D01*
X180140000Y-68540000D02*
X180500000Y-68540000D01*
X179600000Y-68000000D02*
X180140000Y-68540000D01*
%TO.N,Net-(D3-A)*%
X182250000Y-66000000D02*
X179190000Y-66000000D01*
X179190000Y-66000000D02*
X176270000Y-63080000D01*
%TO.N,Net-(D2-A)*%
X158500000Y-63000000D02*
X156750000Y-63000000D01*
X180500000Y-59960000D02*
X180500000Y-59500000D01*
X182250000Y-61710000D02*
X180500000Y-59960000D01*
%TO.N,/ENA*%
X170704057Y-61500000D02*
X171000000Y-61500000D01*
X168703057Y-59499000D02*
X170704057Y-61500000D01*
%TO.N,Net-(D4-A)*%
X165000000Y-61000000D02*
X165500000Y-60500000D01*
X155000000Y-61000000D02*
X165000000Y-61000000D01*
X155000000Y-69830000D02*
X155000000Y-61000000D01*
X156750000Y-71580000D02*
X155000000Y-69830000D01*
%TO.N,+5V*%
X164000000Y-68500000D02*
X164000000Y-70000000D01*
X160000000Y-68000000D02*
X163500000Y-68000000D01*
X157500000Y-74000000D02*
X158500000Y-73000000D01*
X158500000Y-73000000D02*
X158500000Y-69500000D01*
X154670000Y-74000000D02*
X157500000Y-74000000D01*
X158500000Y-69500000D02*
X160000000Y-68000000D01*
X163500000Y-68000000D02*
X164000000Y-68500000D01*
X152250000Y-71580000D02*
X154670000Y-74000000D01*
%TO.N,Net-(D2-A)*%
X159562500Y-77937500D02*
X159562500Y-76000000D01*
X159000000Y-78500000D02*
X159562500Y-77937500D01*
X158000000Y-64250000D02*
X158000000Y-65000000D01*
X156750000Y-63000000D02*
X158000000Y-64250000D01*
%TO.N,Net-(D1-A)*%
X159500000Y-73500000D02*
X159500000Y-70000000D01*
X159500000Y-70000000D02*
X159500000Y-70500000D01*
%TO.N,GND*%
X172399000Y-82748943D02*
X172399000Y-81101000D01*
X172399000Y-81101000D02*
X173500000Y-80000000D01*
X172751057Y-83101000D02*
X172399000Y-82748943D01*
X175175000Y-81174943D02*
X173248943Y-83101000D01*
X173248943Y-83101000D02*
X172751057Y-83101000D01*
X175175000Y-69572500D02*
X175175000Y-81174943D01*
%TO.N,Net-(D3-A)*%
X185774000Y-73246900D02*
X187000000Y-74472900D01*
X187000000Y-77040000D02*
X185500000Y-78540000D01*
X185774000Y-67274000D02*
X185774000Y-73246900D01*
X184500000Y-66000000D02*
X185774000Y-67274000D01*
X182250000Y-66000000D02*
X184500000Y-66000000D01*
X187000000Y-74472900D02*
X187000000Y-77040000D01*
%TO.N,Net-(J5-Pin_4)*%
X175000000Y-63646471D02*
X175000000Y-58000000D01*
X176853529Y-65500000D02*
X175000000Y-63646471D01*
X179000000Y-66500000D02*
X178000000Y-65500000D01*
X179000000Y-73000000D02*
X179000000Y-66500000D01*
X176000000Y-73000000D02*
X179000000Y-73000000D01*
X176000000Y-82420000D02*
X176000000Y-73000000D01*
X178000000Y-65500000D02*
X176853529Y-65500000D01*
X178580000Y-85000000D02*
X176000000Y-82420000D01*
%TO.N,GND*%
X175500000Y-65500000D02*
X175531000Y-65500000D01*
X175175000Y-65825000D02*
X175500000Y-65500000D01*
X175175000Y-69572500D02*
X175175000Y-65825000D01*
X162231000Y-64281000D02*
X161030000Y-63080000D01*
X164067471Y-64281000D02*
X162231000Y-64281000D01*
X164771000Y-63577471D02*
X164067471Y-64281000D01*
X169353529Y-58000000D02*
X164771000Y-62582529D01*
X164771000Y-62582529D02*
X164771000Y-63577471D01*
X169920000Y-58000000D02*
X169353529Y-58000000D01*
%TO.N,Net-(L1-A)*%
X161437500Y-76000000D02*
X161437500Y-73612500D01*
X161437500Y-73612500D02*
X161325000Y-73500000D01*
%TO.N,GND*%
X185124000Y-63336000D02*
X186750000Y-61710000D01*
X179066000Y-63336000D02*
X185124000Y-63336000D01*
X178810000Y-63080000D02*
X179066000Y-63336000D01*
%TO.N,Net-(D1-A)*%
X166255000Y-56745000D02*
X181575000Y-56745000D01*
X166041000Y-56959000D02*
X166255000Y-56745000D01*
X166041000Y-58959000D02*
X166041000Y-56959000D01*
X165500000Y-59500000D02*
X166041000Y-58959000D01*
X181575000Y-56745000D02*
X182250000Y-57420000D01*
X163800000Y-59500000D02*
X165500000Y-59500000D01*
X162300000Y-58000000D02*
X163800000Y-59500000D01*
%TO.N,Net-(D4-A)*%
X177000000Y-74937500D02*
X177562500Y-75500000D01*
X180500000Y-73500000D02*
X177000000Y-73500000D01*
X183000000Y-76000000D02*
X180500000Y-73500000D01*
X177000000Y-73500000D02*
X177000000Y-74937500D01*
X185500000Y-76000000D02*
X183000000Y-76000000D01*
%TO.N,Net-(D2-A)*%
X154807500Y-79000000D02*
X156562500Y-79000000D01*
X156562500Y-79000000D02*
X159562500Y-76000000D01*
%TO.N,Net-(D1-A)*%
X156540000Y-76460000D02*
X159500000Y-73500000D01*
X154807500Y-76460000D02*
X156540000Y-76460000D01*
%TO.N,Net-(D2-A)*%
X162369000Y-61879000D02*
X163570000Y-63080000D01*
X157871000Y-61879000D02*
X162369000Y-61879000D01*
X156750000Y-63000000D02*
X157871000Y-61879000D01*
%TO.N,Net-(D1-A)*%
X157460000Y-58000000D02*
X162300000Y-58000000D01*
X156750000Y-58710000D02*
X157460000Y-58000000D01*
%TO.N,Net-(D4-A)*%
X185500000Y-73540000D02*
X182250000Y-70290000D01*
X185500000Y-76000000D02*
X185500000Y-73540000D01*
%TO.N,Net-(D3-A)*%
X178500000Y-80500000D02*
X177500000Y-79500000D01*
X183540000Y-80500000D02*
X178500000Y-80500000D01*
X185500000Y-78540000D02*
X183540000Y-80500000D01*
%TO.N,Net-(U2-VO)*%
X167175000Y-78000000D02*
X167175000Y-73552500D01*
X167175000Y-73552500D02*
X168875000Y-71852500D01*
%TO.N,Net-(L3-A)*%
X168437500Y-78562500D02*
X169000000Y-78000000D01*
X168437500Y-80500000D02*
X168437500Y-78562500D01*
%TO.N,+5V*%
X162580000Y-84482500D02*
X162580000Y-85000000D01*
X166562500Y-80500000D02*
X162580000Y-84482500D01*
X166562500Y-78886160D02*
X166562500Y-80500000D01*
X164000000Y-76323660D02*
X166562500Y-78886160D01*
X164000000Y-70000000D02*
X164000000Y-76323660D01*
X163639000Y-56799000D02*
X164840000Y-58000000D01*
X154161000Y-56799000D02*
X163639000Y-56799000D01*
X152250000Y-58710000D02*
X154161000Y-56799000D01*
X152250000Y-67290000D02*
X152250000Y-71580000D01*
X152250000Y-63000000D02*
X152250000Y-67290000D01*
X152250000Y-58710000D02*
X152250000Y-63000000D01*
%TO.N,GND*%
X186750000Y-66000000D02*
X186750000Y-70290000D01*
X186750000Y-61710000D02*
X186750000Y-66000000D01*
X186750000Y-57420000D02*
X186750000Y-61710000D01*
%TO.N,Net-(J5-Pin_2)*%
X169570000Y-64000000D02*
X168650000Y-63080000D01*
X170000000Y-64000000D02*
X169570000Y-64000000D01*
X171099000Y-65099000D02*
X170000000Y-64000000D01*
X171099000Y-82599000D02*
X171099000Y-65099000D01*
X173500000Y-85000000D02*
X171099000Y-82599000D01*
%TO.N,Net-(J5-Pin_1)*%
X170500000Y-65500000D02*
X168530000Y-65500000D01*
X168530000Y-65500000D02*
X166110000Y-63080000D01*
X170500000Y-84540000D02*
X170500000Y-65500000D01*
X170960000Y-85000000D02*
X170500000Y-84540000D01*
%TO.N,Net-(L2-A)*%
X179325000Y-75612500D02*
X179437500Y-75500000D01*
X179325000Y-79500000D02*
X179325000Y-75612500D01*
%TO.N,Net-(J5-Pin_3)*%
X171674000Y-64432471D02*
X172460000Y-63646471D01*
X174401000Y-75184660D02*
X171674000Y-72457660D01*
X174401000Y-81099000D02*
X174401000Y-75184660D01*
X172460000Y-63646471D02*
X172460000Y-58000000D01*
X171674000Y-72457660D02*
X171674000Y-64432471D01*
X173000000Y-82500000D02*
X174401000Y-81099000D01*
%TD*%
M02*
