%TF.GenerationSoftware,KiCad,Pcbnew,9.0.4*%
%TF.CreationDate,2025-09-01T01:35:23+05:30*%
%TF.ProjectId,L298,4c323938-2e6b-4696-9361-645f70636258,rev?*%
%TF.SameCoordinates,Original*%
%TF.FileFunction,Legend,Top*%
%TF.FilePolarity,Positive*%
%FSLAX46Y46*%
G04 Gerber Fmt 4.6, Leading zero omitted, Abs format (unit mm)*
G04 Created by KiCad (PCBNEW 9.0.4) date 2025-09-01 01:35:23*
%MOMM*%
%LPD*%
G01*
G04 APERTURE LIST*
%ADD10C,0.100000*%
%ADD11C,0.150000*%
%ADD12C,0.120000*%
G04 APERTURE END LIST*
D10*
X185000000Y-50000000D02*
X185012899Y-50000010D01*
X185025775Y-50000040D01*
X185038630Y-50000090D01*
X185051462Y-50000160D01*
X185064273Y-50000249D01*
X185077061Y-50000359D01*
X185089827Y-50000488D01*
X185102571Y-50000637D01*
X185115293Y-50000806D01*
X185127993Y-50000994D01*
X185140672Y-50001202D01*
X185153328Y-50001430D01*
X185165963Y-50001677D01*
X185178576Y-50001944D01*
X185191167Y-50002231D01*
X185203736Y-50002537D01*
X185216284Y-50002862D01*
X185228810Y-50003207D01*
X185241315Y-50003571D01*
X185253797Y-50003955D01*
X185266259Y-50004358D01*
X185278699Y-50004780D01*
X185291117Y-50005221D01*
X185303514Y-50005682D01*
X185315889Y-50006162D01*
X185328243Y-50006661D01*
X185340576Y-50007179D01*
X185352887Y-50007716D01*
X185365178Y-50008273D01*
X185377446Y-50008848D01*
X185389694Y-50009442D01*
X185401921Y-50010056D01*
X185414126Y-50010688D01*
X185426310Y-50011339D01*
X185438474Y-50012010D01*
X185450615Y-50012699D01*
X185462737Y-50013406D01*
X185474837Y-50014133D01*
X185486916Y-50014878D01*
X185498974Y-50015642D01*
X185511012Y-50016425D01*
X185523028Y-50017227D01*
X185535024Y-50018047D01*
X185546999Y-50018885D01*
X185558953Y-50019743D01*
X185570887Y-50020619D01*
X185582800Y-50021513D01*
X185594692Y-50022426D01*
X185606564Y-50023357D01*
X185618414Y-50024307D01*
X185630245Y-50025275D01*
X185642055Y-50026261D01*
X185653845Y-50027266D01*
X185665613Y-50028289D01*
X185677362Y-50029331D01*
X185689090Y-50030390D01*
X185700798Y-50031468D01*
X185712486Y-50032564D01*
X185724153Y-50033679D01*
X185735800Y-50034811D01*
X185747427Y-50035962D01*
X185759034Y-50037130D01*
X185770621Y-50038317D01*
X185782186Y-50039522D01*
X185793733Y-50040744D01*
X185805259Y-50041985D01*
X185816766Y-50043243D01*
X185828252Y-50044520D01*
X185839719Y-50045814D01*
X185851164Y-50047127D01*
X185862591Y-50048457D01*
X185873998Y-50049804D01*
X185885385Y-50051170D01*
X185896751Y-50052554D01*
X185908099Y-50053955D01*
X185919426Y-50055373D01*
X185930735Y-50056810D01*
X185942022Y-50058264D01*
X185953291Y-50059736D01*
X185964540Y-50061225D01*
X185975770Y-50062732D01*
X185986979Y-50064257D01*
X185998170Y-50065799D01*
X186009340Y-50067358D01*
X186020492Y-50068935D01*
X186031624Y-50070529D01*
X186042737Y-50072141D01*
X186053830Y-50073770D01*
X186064905Y-50075417D01*
X186075959Y-50077080D01*
X186086995Y-50078762D01*
X186098010Y-50080460D01*
X186109008Y-50082176D01*
X186119985Y-50083908D01*
X186130945Y-50085659D01*
X186141884Y-50087426D01*
X186152805Y-50089210D01*
X186163706Y-50091012D01*
X186174589Y-50092831D01*
X186185452Y-50094666D01*
X186196298Y-50096519D01*
X186207123Y-50098389D01*
X186217931Y-50100276D01*
X186228718Y-50102180D01*
X186239488Y-50104101D01*
X186250238Y-50106039D01*
X186260970Y-50107993D01*
X186271682Y-50109965D01*
X186282378Y-50111954D01*
X186293052Y-50113959D01*
X186303710Y-50115981D01*
X186314348Y-50118020D01*
X186324969Y-50120076D01*
X186335569Y-50122148D01*
X186346153Y-50124238D01*
X186356716Y-50126344D01*
X186367263Y-50128466D01*
X186377790Y-50130606D01*
X186388300Y-50132762D01*
X186398790Y-50134934D01*
X186409263Y-50137124D01*
X186419716Y-50139329D01*
X186430153Y-50141552D01*
X186440570Y-50143791D01*
X186450970Y-50146046D01*
X186461350Y-50148318D01*
X186471715Y-50150607D01*
X186482059Y-50152911D01*
X186492387Y-50155233D01*
X186502694Y-50157571D01*
X186512986Y-50159925D01*
X186523258Y-50162295D01*
X186533514Y-50164682D01*
X186543750Y-50167085D01*
X186553970Y-50169505D01*
X186564170Y-50171941D01*
X186574355Y-50174393D01*
X186584519Y-50176861D01*
X186594668Y-50179346D01*
X186604797Y-50181847D01*
X186614910Y-50184364D01*
X186625003Y-50186897D01*
X186635082Y-50189447D01*
X186645139Y-50192012D01*
X186655182Y-50194594D01*
X186665205Y-50197191D01*
X186675213Y-50199805D01*
X186685200Y-50202435D01*
X186695173Y-50205081D01*
X186705126Y-50207743D01*
X186715064Y-50210421D01*
X186724981Y-50213115D01*
X186734884Y-50215825D01*
X186744767Y-50218551D01*
X186754636Y-50221293D01*
X186764484Y-50224051D01*
X186774318Y-50226825D01*
X186784132Y-50229614D01*
X186793931Y-50232420D01*
X186803710Y-50235241D01*
X186813475Y-50238078D01*
X186823220Y-50240931D01*
X186832951Y-50243800D01*
X186842662Y-50246684D01*
X186852359Y-50249585D01*
X186862036Y-50252501D01*
X186871698Y-50255433D01*
X186881341Y-50258381D01*
X186890970Y-50261344D01*
X186900579Y-50264323D01*
X186910174Y-50267318D01*
X186919749Y-50270328D01*
X186929310Y-50273354D01*
X186938852Y-50276396D01*
X186948379Y-50279453D01*
X186957887Y-50282526D01*
X186967382Y-50285615D01*
X186976856Y-50288718D01*
X186986317Y-50291838D01*
X186995758Y-50294973D01*
X187005186Y-50298124D01*
X187014594Y-50301290D01*
X187023989Y-50304472D01*
X187033363Y-50307669D01*
X187042725Y-50310882D01*
X187052067Y-50314109D01*
X187070704Y-50320612D01*
X187089276Y-50327176D01*
X187107783Y-50333802D01*
X187126224Y-50340489D01*
X187144600Y-50347238D01*
X187162911Y-50354048D01*
X187181158Y-50360919D01*
X187199341Y-50367851D01*
X187217459Y-50374844D01*
X187235513Y-50381898D01*
X187253503Y-50389013D01*
X187271430Y-50396189D01*
X187289293Y-50403425D01*
X187307094Y-50410722D01*
X187324831Y-50418079D01*
X187342505Y-50425497D01*
X187360117Y-50432975D01*
X187377666Y-50440513D01*
X187395153Y-50448111D01*
X187412577Y-50455769D01*
X187429940Y-50463488D01*
X187447242Y-50471266D01*
X187464481Y-50479105D01*
X187481659Y-50487003D01*
X187498777Y-50494961D01*
X187515833Y-50502978D01*
X187532828Y-50511056D01*
X187549763Y-50519192D01*
X187566637Y-50527389D01*
X187583451Y-50535645D01*
X187600204Y-50543960D01*
X187616898Y-50552335D01*
X187633532Y-50560769D01*
X187650106Y-50569262D01*
X187666621Y-50577815D01*
X187683077Y-50586427D01*
X187699473Y-50595098D01*
X187715811Y-50603828D01*
X187732089Y-50612617D01*
X187748309Y-50621465D01*
X187764471Y-50630373D01*
X187780574Y-50639339D01*
X187796619Y-50648365D01*
X187812605Y-50657449D01*
X187828534Y-50666592D01*
X187844405Y-50675794D01*
X187860219Y-50685056D01*
X187875975Y-50694376D01*
X187891674Y-50703754D01*
X187907315Y-50713192D01*
X187922900Y-50722689D01*
X187938427Y-50732244D01*
X187953898Y-50741858D01*
X187969312Y-50751531D01*
X187984670Y-50761263D01*
X187999971Y-50771054D01*
X188015216Y-50780903D01*
X188030405Y-50790811D01*
X188045537Y-50800778D01*
X188060614Y-50810804D01*
X188075635Y-50820889D01*
X188090601Y-50831032D01*
X188105511Y-50841234D01*
X188120365Y-50851495D01*
X188135164Y-50861815D01*
X188149908Y-50872194D01*
X188164597Y-50882632D01*
X188179231Y-50893128D01*
X188193810Y-50903684D01*
X188208334Y-50914298D01*
X188222804Y-50924971D01*
X188237219Y-50935704D01*
X188251579Y-50946495D01*
X188265885Y-50957345D01*
X188280137Y-50968254D01*
X188294334Y-50979223D01*
X188308478Y-50990250D01*
X188322567Y-51001337D01*
X188336603Y-51012482D01*
X188350584Y-51023687D01*
X188364512Y-51034951D01*
X188378386Y-51046275D01*
X188392207Y-51057657D01*
X188405974Y-51069099D01*
X188419687Y-51080601D01*
X188433347Y-51092161D01*
X188446954Y-51103781D01*
X188460507Y-51115461D01*
X188474007Y-51127200D01*
X188487454Y-51138999D01*
X188500848Y-51150858D01*
X188514189Y-51162776D01*
X188527477Y-51174753D01*
X188540712Y-51186791D01*
X188553894Y-51198888D01*
X188567023Y-51211046D01*
X188580099Y-51223263D01*
X188593123Y-51235540D01*
X188606093Y-51247877D01*
X188619012Y-51260274D01*
X188631877Y-51272732D01*
X188644690Y-51285249D01*
X188657450Y-51297827D01*
X188670158Y-51310465D01*
X188682813Y-51323163D01*
X188695416Y-51335922D01*
X188707966Y-51348741D01*
X188720464Y-51361621D01*
X188732909Y-51374561D01*
X188745302Y-51387562D01*
X188757642Y-51400624D01*
X188769930Y-51413746D01*
X188782166Y-51426930D01*
X188794349Y-51440174D01*
X188806480Y-51453479D01*
X188818558Y-51466845D01*
X188830584Y-51480272D01*
X188842557Y-51493760D01*
X188854478Y-51507310D01*
X188866347Y-51520920D01*
X188878163Y-51534592D01*
X188889926Y-51548325D01*
X188901637Y-51562120D01*
X188913296Y-51575976D01*
X188924902Y-51589894D01*
X188936455Y-51603873D01*
X188947956Y-51617914D01*
X188959404Y-51632016D01*
X188970800Y-51646180D01*
X188982143Y-51660406D01*
X188993433Y-51674694D01*
X189004670Y-51689044D01*
X189015854Y-51703456D01*
X189026986Y-51717930D01*
X189038064Y-51732466D01*
X189049090Y-51747064D01*
X189060062Y-51761724D01*
X189070982Y-51776446D01*
X189081848Y-51791231D01*
X189092661Y-51806078D01*
X189103420Y-51820987D01*
X189114126Y-51835958D01*
X189124779Y-51850992D01*
X189135378Y-51866089D01*
X189145924Y-51881248D01*
X189156415Y-51896469D01*
X189166853Y-51911753D01*
X189177237Y-51927100D01*
X189187568Y-51942509D01*
X189197844Y-51957981D01*
X189208065Y-51973515D01*
X189218233Y-51989112D01*
X189228346Y-52004772D01*
X189238405Y-52020495D01*
X189248409Y-52036280D01*
X189258359Y-52052128D01*
X189268253Y-52068039D01*
X189278093Y-52084012D01*
X189287877Y-52100048D01*
X189297607Y-52116147D01*
X189307281Y-52132308D01*
X189316899Y-52148533D01*
X189326462Y-52164819D01*
X189335970Y-52181169D01*
X189345421Y-52197581D01*
X189354817Y-52214056D01*
X189364156Y-52230593D01*
X189373439Y-52247192D01*
X189382665Y-52263855D01*
X189391835Y-52280579D01*
X189400949Y-52297366D01*
X189410005Y-52314215D01*
X189419004Y-52331126D01*
X189427946Y-52348100D01*
X189436830Y-52365135D01*
X189445657Y-52382233D01*
X189454426Y-52399392D01*
X189463137Y-52416613D01*
X189471789Y-52433896D01*
X189480384Y-52451240D01*
X189488920Y-52468646D01*
X189497397Y-52486113D01*
X189505815Y-52503641D01*
X189514174Y-52521230D01*
X189522474Y-52538880D01*
X189530714Y-52556590D01*
X189538894Y-52574361D01*
X189547014Y-52592192D01*
X189555075Y-52610083D01*
X189563074Y-52628034D01*
X189571013Y-52646045D01*
X189578891Y-52664115D01*
X189586708Y-52682245D01*
X189594464Y-52700433D01*
X189602158Y-52718680D01*
X189609790Y-52736985D01*
X189617360Y-52755348D01*
X189624867Y-52773770D01*
X189632312Y-52792248D01*
X189639694Y-52810783D01*
X189647013Y-52829376D01*
X189654269Y-52848024D01*
X189661461Y-52866729D01*
X189668588Y-52885489D01*
X189675652Y-52904304D01*
X189682651Y-52923174D01*
X189689585Y-52942098D01*
X189696454Y-52961076D01*
X189703258Y-52980107D01*
X189709996Y-52999190D01*
X189716668Y-53018326D01*
X189723273Y-53037513D01*
X189729812Y-53056752D01*
X189736284Y-53076040D01*
X189742689Y-53095378D01*
X189749026Y-53114765D01*
X189755295Y-53134201D01*
X189761496Y-53153684D01*
X189767628Y-53173213D01*
X189773691Y-53192789D01*
X189779685Y-53212409D01*
X189785610Y-53232074D01*
X189791464Y-53251782D01*
X189797248Y-53271532D01*
X189802961Y-53291324D01*
X189808603Y-53311156D01*
X189814174Y-53331027D01*
X189819672Y-53350936D01*
X189825098Y-53370881D01*
X189830452Y-53390863D01*
X189835733Y-53410878D01*
X189840940Y-53430927D01*
X189846073Y-53451007D01*
X189851132Y-53471117D01*
X189856116Y-53491256D01*
X189861025Y-53511421D01*
X189865859Y-53531612D01*
X189870616Y-53551826D01*
X189875297Y-53572062D01*
X189879901Y-53592317D01*
X189884428Y-53612590D01*
X189888877Y-53632878D01*
X189893248Y-53653180D01*
X189897540Y-53673492D01*
X189901753Y-53693813D01*
X189905886Y-53714139D01*
X189909938Y-53734469D01*
X189913910Y-53754799D01*
X189917801Y-53775126D01*
X189921610Y-53795447D01*
X189925337Y-53815759D01*
X189928981Y-53836058D01*
X189932542Y-53856340D01*
X189936019Y-53876602D01*
X189939411Y-53896839D01*
X189942719Y-53917047D01*
X189945941Y-53937221D01*
X189949077Y-53957356D01*
X189952126Y-53977447D01*
X189955087Y-53997489D01*
X189957961Y-54017474D01*
X189960747Y-54037397D01*
X189963443Y-54057251D01*
X189966049Y-54077028D01*
X189968565Y-54096721D01*
X189970990Y-54116320D01*
X189973323Y-54135817D01*
X189975564Y-54155202D01*
X189977712Y-54174462D01*
X189979765Y-54193587D01*
X189981724Y-54212564D01*
X189983588Y-54231378D01*
X189985356Y-54250013D01*
X189987028Y-54268452D01*
X189988601Y-54286674D01*
X189990077Y-54304659D01*
X189991453Y-54322381D01*
X189992729Y-54339811D01*
X189993905Y-54356918D01*
X189994979Y-54373663D01*
X189995951Y-54390001D01*
X189996820Y-54405878D01*
X189997584Y-54421229D01*
X189998244Y-54435971D01*
X189998799Y-54449997D01*
X189999248Y-54463163D01*
X189999590Y-54475261D01*
X189999827Y-54485962D01*
X189999960Y-54494660D01*
X190000000Y-54500000D01*
X185000000Y-90000000D02*
X185011668Y-89999990D01*
X185023319Y-89999960D01*
X185034951Y-89999910D01*
X185046565Y-89999840D01*
X185058161Y-89999751D01*
X185069738Y-89999641D01*
X185081298Y-89999512D01*
X185092840Y-89999363D01*
X185104364Y-89999194D01*
X185115870Y-89999005D01*
X185127358Y-89998797D01*
X185138829Y-89998569D01*
X185150281Y-89998321D01*
X185161716Y-89998054D01*
X185173133Y-89997767D01*
X185184532Y-89997461D01*
X185195913Y-89997135D01*
X185207277Y-89996790D01*
X185218623Y-89996425D01*
X185229952Y-89996041D01*
X185241263Y-89995637D01*
X185252556Y-89995214D01*
X185263832Y-89994772D01*
X185275090Y-89994310D01*
X185286331Y-89993829D01*
X185297555Y-89993329D01*
X185308761Y-89992810D01*
X185319949Y-89992271D01*
X185331121Y-89991713D01*
X185342275Y-89991137D01*
X185353412Y-89990540D01*
X185364531Y-89989925D01*
X185375634Y-89989291D01*
X185386719Y-89988638D01*
X185397787Y-89987966D01*
X185408838Y-89987275D01*
X185419872Y-89986564D01*
X185430889Y-89985835D01*
X185441889Y-89985087D01*
X185452871Y-89984320D01*
X185463837Y-89983535D01*
X185474786Y-89982730D01*
X185485718Y-89981907D01*
X185496633Y-89981065D01*
X185507531Y-89980204D01*
X185518412Y-89979324D01*
X185529277Y-89978426D01*
X185540125Y-89977509D01*
X185550956Y-89976574D01*
X185561770Y-89975619D01*
X185572568Y-89974647D01*
X185583349Y-89973655D01*
X185594114Y-89972646D01*
X185604861Y-89971617D01*
X185615593Y-89970570D01*
X185626307Y-89969505D01*
X185637006Y-89968421D01*
X185647688Y-89967319D01*
X185658353Y-89966198D01*
X185669002Y-89965060D01*
X185679635Y-89963902D01*
X185690251Y-89962727D01*
X185700851Y-89961533D01*
X185711434Y-89960320D01*
X185722002Y-89959090D01*
X185732553Y-89957841D01*
X185743089Y-89956574D01*
X185753607Y-89955289D01*
X185764110Y-89953986D01*
X185774596Y-89952665D01*
X185785067Y-89951325D01*
X185795521Y-89949968D01*
X185805960Y-89948592D01*
X185816382Y-89947199D01*
X185826789Y-89945787D01*
X185837179Y-89944357D01*
X185847554Y-89942909D01*
X185857912Y-89941444D01*
X185868255Y-89939960D01*
X185878582Y-89938459D01*
X185888894Y-89936939D01*
X185899188Y-89935402D01*
X185909469Y-89933847D01*
X185919732Y-89932274D01*
X185929981Y-89930683D01*
X185940213Y-89929075D01*
X185950431Y-89927448D01*
X185960631Y-89925804D01*
X185970818Y-89924143D01*
X185980987Y-89922463D01*
X185991143Y-89920766D01*
X186001281Y-89919051D01*
X186011406Y-89917318D01*
X186021514Y-89915568D01*
X186031608Y-89913801D01*
X186041684Y-89912015D01*
X186051747Y-89910212D01*
X186061794Y-89908392D01*
X186071826Y-89906554D01*
X186081842Y-89904698D01*
X186091844Y-89902825D01*
X186101829Y-89900935D01*
X186111800Y-89899027D01*
X186121755Y-89897101D01*
X186131697Y-89895158D01*
X186141621Y-89893198D01*
X186151532Y-89891220D01*
X186161427Y-89889226D01*
X186171308Y-89887213D01*
X186181172Y-89885184D01*
X186191023Y-89883136D01*
X186200858Y-89881072D01*
X186210679Y-89878990D01*
X186220484Y-89876892D01*
X186230276Y-89874775D01*
X186240051Y-89872642D01*
X186249813Y-89870491D01*
X186259558Y-89868324D01*
X186269291Y-89866139D01*
X186279006Y-89863937D01*
X186288710Y-89861717D01*
X186298396Y-89859481D01*
X186308070Y-89857227D01*
X186317727Y-89854957D01*
X186327372Y-89852668D01*
X186337000Y-89850364D01*
X186346616Y-89848042D01*
X186356215Y-89845703D01*
X186365801Y-89843347D01*
X186375371Y-89840974D01*
X186384929Y-89838584D01*
X186394470Y-89836177D01*
X186403999Y-89833752D01*
X186413512Y-89831312D01*
X186423012Y-89828853D01*
X186432496Y-89826379D01*
X186441968Y-89823887D01*
X186451423Y-89821378D01*
X186460866Y-89818852D01*
X186470293Y-89816310D01*
X186479708Y-89813751D01*
X186489106Y-89811175D01*
X186498493Y-89808581D01*
X186507863Y-89805972D01*
X186517222Y-89803345D01*
X186526564Y-89800702D01*
X186535894Y-89798041D01*
X186545208Y-89795364D01*
X186554511Y-89792670D01*
X186563797Y-89789960D01*
X186582330Y-89784488D01*
X186600807Y-89778950D01*
X186619229Y-89773344D01*
X186637596Y-89767672D01*
X186655909Y-89761934D01*
X186674166Y-89756129D01*
X186692369Y-89750257D01*
X186710517Y-89744319D01*
X186728612Y-89738315D01*
X186746652Y-89732244D01*
X186764639Y-89726107D01*
X186782572Y-89719904D01*
X186800452Y-89713635D01*
X186818278Y-89707300D01*
X186836052Y-89700899D01*
X186853773Y-89694432D01*
X186871441Y-89687900D01*
X186889056Y-89681301D01*
X186906619Y-89674637D01*
X186924130Y-89667907D01*
X186941590Y-89661112D01*
X186958997Y-89654251D01*
X186976353Y-89647324D01*
X186993657Y-89640332D01*
X187010910Y-89633275D01*
X187028112Y-89626152D01*
X187045263Y-89618964D01*
X187062364Y-89611710D01*
X187079413Y-89604392D01*
X187096413Y-89597007D01*
X187113362Y-89589558D01*
X187130261Y-89582043D01*
X187147110Y-89574464D01*
X187163909Y-89566818D01*
X187180659Y-89559108D01*
X187197359Y-89551333D01*
X187214010Y-89543492D01*
X187230612Y-89535586D01*
X187247164Y-89527616D01*
X187263668Y-89519580D01*
X187280124Y-89511478D01*
X187296530Y-89503312D01*
X187312888Y-89495081D01*
X187329198Y-89486784D01*
X187345460Y-89478422D01*
X187361674Y-89469995D01*
X187377840Y-89461503D01*
X187393959Y-89452946D01*
X187410030Y-89444324D01*
X187426053Y-89435636D01*
X187442029Y-89426883D01*
X187457958Y-89418065D01*
X187473840Y-89409182D01*
X187489675Y-89400233D01*
X187505463Y-89391219D01*
X187521205Y-89382140D01*
X187536900Y-89372995D01*
X187552549Y-89363785D01*
X187568151Y-89354509D01*
X187583707Y-89345168D01*
X187599218Y-89335762D01*
X187614682Y-89326289D01*
X187630100Y-89316751D01*
X187645473Y-89307148D01*
X187660800Y-89297479D01*
X187676082Y-89287744D01*
X187691319Y-89277943D01*
X187706510Y-89268076D01*
X187721656Y-89258144D01*
X187736757Y-89248145D01*
X187751813Y-89238081D01*
X187766824Y-89227950D01*
X187781790Y-89217753D01*
X187796712Y-89207490D01*
X187811589Y-89197161D01*
X187826422Y-89186765D01*
X187841210Y-89176303D01*
X187855954Y-89165774D01*
X187870653Y-89155179D01*
X187885309Y-89144517D01*
X187899921Y-89133788D01*
X187914488Y-89122993D01*
X187929012Y-89112130D01*
X187943492Y-89101201D01*
X187957928Y-89090205D01*
X187972320Y-89079141D01*
X187986669Y-89068010D01*
X188000975Y-89056812D01*
X188015236Y-89045546D01*
X188029455Y-89034213D01*
X188043630Y-89022813D01*
X188057762Y-89011344D01*
X188071851Y-88999808D01*
X188085896Y-88988204D01*
X188099898Y-88976532D01*
X188113858Y-88964792D01*
X188127774Y-88952984D01*
X188141647Y-88941107D01*
X188155478Y-88929162D01*
X188169265Y-88917148D01*
X188183010Y-88905066D01*
X188196712Y-88892915D01*
X188210371Y-88880695D01*
X188223988Y-88868406D01*
X188237562Y-88856049D01*
X188251093Y-88843621D01*
X188264581Y-88831125D01*
X188278027Y-88818559D01*
X188291431Y-88805924D01*
X188304792Y-88793219D01*
X188318110Y-88780444D01*
X188331386Y-88767599D01*
X188344620Y-88754685D01*
X188357810Y-88741700D01*
X188370959Y-88728644D01*
X188384065Y-88715519D01*
X188397129Y-88702323D01*
X188410150Y-88689056D01*
X188423129Y-88675718D01*
X188436065Y-88662310D01*
X188448959Y-88648830D01*
X188461810Y-88635279D01*
X188474619Y-88621657D01*
X188487386Y-88607964D01*
X188500110Y-88594198D01*
X188512792Y-88580362D01*
X188525431Y-88566453D01*
X188538027Y-88552472D01*
X188550582Y-88538419D01*
X188563093Y-88524294D01*
X188575562Y-88510097D01*
X188587989Y-88495827D01*
X188600373Y-88481484D01*
X188612714Y-88467068D01*
X188625012Y-88452580D01*
X188637268Y-88438018D01*
X188649481Y-88423384D01*
X188661652Y-88408676D01*
X188673779Y-88393894D01*
X188685864Y-88379039D01*
X188697905Y-88364110D01*
X188709904Y-88349107D01*
X188721860Y-88334030D01*
X188733772Y-88318878D01*
X188745642Y-88303653D01*
X188757468Y-88288353D01*
X188769251Y-88272978D01*
X188780990Y-88257529D01*
X188792687Y-88242005D01*
X188804339Y-88226405D01*
X188815949Y-88210731D01*
X188827514Y-88194981D01*
X188839036Y-88179156D01*
X188850514Y-88163256D01*
X188861949Y-88147279D01*
X188873339Y-88131227D01*
X188884686Y-88115099D01*
X188895988Y-88098895D01*
X188907246Y-88082614D01*
X188918460Y-88066257D01*
X188929629Y-88049824D01*
X188940754Y-88033314D01*
X188951835Y-88016728D01*
X188962871Y-88000064D01*
X188973862Y-87983324D01*
X188984808Y-87966506D01*
X188995709Y-87949612D01*
X189006565Y-87932640D01*
X189017375Y-87915590D01*
X189028141Y-87898463D01*
X189038861Y-87881259D01*
X189049535Y-87863976D01*
X189060163Y-87846616D01*
X189070746Y-87829178D01*
X189081283Y-87811661D01*
X189091773Y-87794067D01*
X189102218Y-87776394D01*
X189112616Y-87758643D01*
X189122967Y-87740813D01*
X189133272Y-87722905D01*
X189143530Y-87704918D01*
X189153741Y-87686852D01*
X189163904Y-87668708D01*
X189174021Y-87650485D01*
X189184090Y-87632182D01*
X189194111Y-87613801D01*
X189204085Y-87595340D01*
X189214011Y-87576801D01*
X189223888Y-87558182D01*
X189233718Y-87539484D01*
X189243499Y-87520706D01*
X189253231Y-87501849D01*
X189262914Y-87482913D01*
X189272549Y-87463897D01*
X189282134Y-87444802D01*
X189291670Y-87425627D01*
X189301156Y-87406373D01*
X189310593Y-87387039D01*
X189319980Y-87367625D01*
X189329316Y-87348132D01*
X189338602Y-87328559D01*
X189347838Y-87308907D01*
X189357023Y-87289175D01*
X189366157Y-87269364D01*
X189375240Y-87249473D01*
X189384271Y-87229503D01*
X189393251Y-87209453D01*
X189402179Y-87189323D01*
X189411054Y-87169115D01*
X189419878Y-87148827D01*
X189428649Y-87128459D01*
X189437367Y-87108013D01*
X189446033Y-87087488D01*
X189454645Y-87066883D01*
X189463203Y-87046200D01*
X189471708Y-87025438D01*
X189480159Y-87004597D01*
X189488556Y-86983678D01*
X189496898Y-86962680D01*
X189505186Y-86941605D01*
X189513418Y-86920451D01*
X189521595Y-86899219D01*
X189529717Y-86877910D01*
X189537783Y-86856523D01*
X189545793Y-86835059D01*
X189553746Y-86813518D01*
X189561643Y-86791900D01*
X189569483Y-86770205D01*
X189577266Y-86748434D01*
X189584992Y-86726588D01*
X189592659Y-86704665D01*
X189600269Y-86682667D01*
X189607820Y-86660595D01*
X189615312Y-86638447D01*
X189622746Y-86616225D01*
X189630120Y-86593929D01*
X189637435Y-86571560D01*
X189644690Y-86549117D01*
X189651884Y-86526602D01*
X189659018Y-86504014D01*
X189666091Y-86481355D01*
X189673103Y-86458625D01*
X189680053Y-86435824D01*
X189686942Y-86412952D01*
X189693768Y-86390012D01*
X189700532Y-86367002D01*
X189707233Y-86343924D01*
X189713870Y-86320778D01*
X189720444Y-86297565D01*
X189726954Y-86274286D01*
X189733399Y-86250942D01*
X189739780Y-86227533D01*
X189746096Y-86204060D01*
X189752346Y-86180524D01*
X189758531Y-86156926D01*
X189764649Y-86133266D01*
X189770700Y-86109547D01*
X189776685Y-86085768D01*
X189782602Y-86061931D01*
X189788452Y-86038037D01*
X189794233Y-86014088D01*
X189799945Y-85990083D01*
X189805589Y-85966025D01*
X189811163Y-85941915D01*
X189816667Y-85917755D01*
X189822101Y-85893545D01*
X189827464Y-85869287D01*
X189832757Y-85844983D01*
X189837977Y-85820634D01*
X189843125Y-85796243D01*
X189848201Y-85771810D01*
X189853204Y-85747338D01*
X189858134Y-85722828D01*
X189862990Y-85698284D01*
X189867771Y-85673706D01*
X189872477Y-85649096D01*
X189877109Y-85624459D01*
X189881664Y-85599795D01*
X189886143Y-85575107D01*
X189890546Y-85550398D01*
X189894871Y-85525672D01*
X189899118Y-85500929D01*
X189903287Y-85476175D01*
X189907377Y-85451411D01*
X189911387Y-85426643D01*
X189915318Y-85401872D01*
X189919168Y-85377103D01*
X189922938Y-85352339D01*
X189926626Y-85327586D01*
X189930231Y-85302847D01*
X189933754Y-85278127D01*
X189937194Y-85253431D01*
X189940550Y-85228765D01*
X189943821Y-85204133D01*
X189947007Y-85179542D01*
X189950108Y-85154998D01*
X189953122Y-85130508D01*
X189956050Y-85106078D01*
X189958889Y-85081717D01*
X189961641Y-85057432D01*
X189964304Y-85033232D01*
X189966877Y-85009127D01*
X189969361Y-84985126D01*
X189971753Y-84961240D01*
X189974054Y-84937481D01*
X189976262Y-84913862D01*
X189978378Y-84890397D01*
X189980399Y-84867100D01*
X189982327Y-84843987D01*
X189984159Y-84821078D01*
X189985895Y-84798393D01*
X189987534Y-84775952D01*
X189989076Y-84753782D01*
X189990520Y-84731911D01*
X189991864Y-84710369D01*
X189993108Y-84689194D01*
X189994252Y-84668427D01*
X189995294Y-84648117D01*
X189996233Y-84628323D01*
X189997069Y-84609113D01*
X189997801Y-84590575D01*
X189998429Y-84572816D01*
X189998950Y-84555981D01*
X189999366Y-84540266D01*
X189999675Y-84525959D01*
X189999879Y-84513536D01*
X189999981Y-84503944D01*
X190000000Y-84500000D01*
X150000000Y-85000000D02*
X150000010Y-85012237D01*
X150000040Y-85024455D01*
X150000090Y-85036652D01*
X150000160Y-85048830D01*
X150000249Y-85060988D01*
X150000359Y-85073126D01*
X150000488Y-85085244D01*
X150000637Y-85097342D01*
X150000806Y-85109420D01*
X150000995Y-85121479D01*
X150001203Y-85133518D01*
X150001431Y-85145538D01*
X150001678Y-85157538D01*
X150001945Y-85169518D01*
X150002232Y-85181478D01*
X150002538Y-85193419D01*
X150002864Y-85205341D01*
X150003209Y-85217243D01*
X150003573Y-85229126D01*
X150003957Y-85240989D01*
X150004360Y-85252833D01*
X150004783Y-85264658D01*
X150005225Y-85276463D01*
X150005686Y-85288249D01*
X150006167Y-85300016D01*
X150006666Y-85311763D01*
X150007185Y-85323492D01*
X150007723Y-85335201D01*
X150008280Y-85346891D01*
X150008856Y-85358562D01*
X150009452Y-85370215D01*
X150010066Y-85381847D01*
X150010699Y-85393462D01*
X150011352Y-85405056D01*
X150012023Y-85416633D01*
X150012713Y-85428190D01*
X150013422Y-85439728D01*
X150014150Y-85451248D01*
X150014897Y-85462749D01*
X150015662Y-85474231D01*
X150016447Y-85485694D01*
X150017250Y-85497138D01*
X150018072Y-85508565D01*
X150018912Y-85519971D01*
X150019771Y-85531361D01*
X150020649Y-85542730D01*
X150021546Y-85554082D01*
X150022461Y-85565415D01*
X150023394Y-85576730D01*
X150024346Y-85588025D01*
X150025317Y-85599303D01*
X150026306Y-85610562D01*
X150027313Y-85621804D01*
X150028339Y-85633026D01*
X150029384Y-85644231D01*
X150030446Y-85655416D01*
X150031527Y-85666584D01*
X150032627Y-85677734D01*
X150033744Y-85688865D01*
X150034880Y-85699978D01*
X150036034Y-85711074D01*
X150037207Y-85722150D01*
X150038397Y-85733210D01*
X150039606Y-85744251D01*
X150040833Y-85755274D01*
X150042078Y-85766279D01*
X150043341Y-85777266D01*
X150044622Y-85788235D01*
X150045921Y-85799187D01*
X150047238Y-85810120D01*
X150048573Y-85821036D01*
X150049926Y-85831934D01*
X150051297Y-85842814D01*
X150052686Y-85853676D01*
X150054093Y-85864522D01*
X150055517Y-85875348D01*
X150056960Y-85886159D01*
X150058420Y-85896950D01*
X150059898Y-85907725D01*
X150061394Y-85918481D01*
X150062907Y-85929221D01*
X150064439Y-85939942D01*
X150065988Y-85950648D01*
X150067554Y-85961334D01*
X150069138Y-85972004D01*
X150070740Y-85982656D01*
X150072360Y-85993291D01*
X150073997Y-86003908D01*
X150075652Y-86014510D01*
X150077324Y-86025092D01*
X150079013Y-86035659D01*
X150080720Y-86046207D01*
X150082445Y-86056739D01*
X150084187Y-86067253D01*
X150085947Y-86077751D01*
X150087723Y-86088231D01*
X150089518Y-86098695D01*
X150091329Y-86109140D01*
X150093158Y-86119571D01*
X150095005Y-86129982D01*
X150096868Y-86140378D01*
X150098749Y-86150756D01*
X150100647Y-86161119D01*
X150102562Y-86171463D01*
X150104495Y-86181792D01*
X150106445Y-86192103D01*
X150108412Y-86202398D01*
X150110396Y-86212675D01*
X150112397Y-86222937D01*
X150114415Y-86233181D01*
X150116451Y-86243410D01*
X150118503Y-86253620D01*
X150120572Y-86263816D01*
X150122659Y-86273993D01*
X150124763Y-86284156D01*
X150126883Y-86294300D01*
X150129021Y-86304430D01*
X150131175Y-86314542D01*
X150133346Y-86324639D01*
X150135534Y-86334717D01*
X150137740Y-86344782D01*
X150139962Y-86354827D01*
X150142201Y-86364859D01*
X150144456Y-86374873D01*
X150146729Y-86384872D01*
X150149018Y-86394853D01*
X150151325Y-86404820D01*
X150153647Y-86414768D01*
X150155987Y-86424703D01*
X150158344Y-86434619D01*
X150160717Y-86444522D01*
X150163107Y-86454406D01*
X150165514Y-86464277D01*
X150167936Y-86474129D01*
X150170377Y-86483967D01*
X150172833Y-86493788D01*
X150175306Y-86503594D01*
X150177796Y-86513383D01*
X150180302Y-86523158D01*
X150182825Y-86532915D01*
X150185365Y-86542658D01*
X150187920Y-86552384D01*
X150190493Y-86562096D01*
X150193082Y-86571789D01*
X150195688Y-86581470D01*
X150198309Y-86591133D01*
X150200948Y-86600782D01*
X150203602Y-86610413D01*
X150206274Y-86620031D01*
X150208961Y-86629631D01*
X150211666Y-86639219D01*
X150214386Y-86648787D01*
X150217123Y-86658344D01*
X150219876Y-86667882D01*
X150222646Y-86677407D01*
X150225432Y-86686914D01*
X150228234Y-86696409D01*
X150231052Y-86705885D01*
X150233887Y-86715349D01*
X150236738Y-86724795D01*
X150239606Y-86734229D01*
X150242489Y-86743644D01*
X150245389Y-86753047D01*
X150248305Y-86762432D01*
X150251238Y-86771805D01*
X150254186Y-86781159D01*
X150260131Y-86799826D01*
X150266141Y-86818433D01*
X150272216Y-86836979D01*
X150278355Y-86855466D01*
X150284558Y-86873893D01*
X150290826Y-86892261D01*
X150297158Y-86910569D01*
X150303554Y-86928818D01*
X150310013Y-86947009D01*
X150316537Y-86965140D01*
X150323125Y-86983214D01*
X150329776Y-87001229D01*
X150336492Y-87019186D01*
X150343270Y-87037085D01*
X150350113Y-87054926D01*
X150357019Y-87072710D01*
X150363988Y-87090436D01*
X150371020Y-87108105D01*
X150378116Y-87125718D01*
X150385275Y-87143273D01*
X150392497Y-87160772D01*
X150399783Y-87178214D01*
X150407131Y-87195600D01*
X150414543Y-87212930D01*
X150422017Y-87230205D01*
X150429554Y-87247423D01*
X150437154Y-87264586D01*
X150444817Y-87281693D01*
X150452543Y-87298745D01*
X150460331Y-87315742D01*
X150468183Y-87332684D01*
X150476096Y-87349572D01*
X150484073Y-87366405D01*
X150492112Y-87383183D01*
X150500214Y-87399907D01*
X150508378Y-87416578D01*
X150516604Y-87433194D01*
X150524894Y-87449756D01*
X150533245Y-87466265D01*
X150541659Y-87482720D01*
X150550136Y-87499122D01*
X150558675Y-87515471D01*
X150567276Y-87531767D01*
X150575940Y-87548010D01*
X150584666Y-87564200D01*
X150593455Y-87580338D01*
X150602306Y-87596423D01*
X150611219Y-87612456D01*
X150620195Y-87628436D01*
X150629233Y-87644365D01*
X150638334Y-87660242D01*
X150647497Y-87676067D01*
X150656722Y-87691840D01*
X150666010Y-87707562D01*
X150675360Y-87723233D01*
X150684773Y-87738852D01*
X150694248Y-87754421D01*
X150703785Y-87769938D01*
X150713385Y-87785404D01*
X150723048Y-87800820D01*
X150732773Y-87816185D01*
X150742560Y-87831499D01*
X150752411Y-87846764D01*
X150762323Y-87861977D01*
X150772299Y-87877141D01*
X150782337Y-87892255D01*
X150792438Y-87907318D01*
X150802601Y-87922332D01*
X150812828Y-87937296D01*
X150823117Y-87952211D01*
X150833469Y-87967076D01*
X150843884Y-87981891D01*
X150854362Y-87996657D01*
X150864902Y-88011374D01*
X150875506Y-88026042D01*
X150886173Y-88040661D01*
X150896903Y-88055230D01*
X150907697Y-88069751D01*
X150918553Y-88084223D01*
X150929473Y-88098647D01*
X150940456Y-88113021D01*
X150951503Y-88127348D01*
X150962613Y-88141625D01*
X150973786Y-88155854D01*
X150985023Y-88170035D01*
X150996324Y-88184168D01*
X151007689Y-88198253D01*
X151019117Y-88212289D01*
X151030609Y-88226277D01*
X151042166Y-88240218D01*
X151053786Y-88254110D01*
X151065470Y-88267955D01*
X151077218Y-88281751D01*
X151089031Y-88295500D01*
X151100908Y-88309202D01*
X151112849Y-88322855D01*
X151124855Y-88336461D01*
X151136925Y-88350020D01*
X151149060Y-88363531D01*
X151161260Y-88376994D01*
X151173524Y-88390410D01*
X151185853Y-88403779D01*
X151198247Y-88417100D01*
X151210707Y-88430374D01*
X151223231Y-88443600D01*
X151235821Y-88456780D01*
X151248476Y-88469912D01*
X151261196Y-88482997D01*
X151273982Y-88496034D01*
X151286833Y-88509025D01*
X151299750Y-88521968D01*
X151312733Y-88534864D01*
X151325781Y-88547713D01*
X151338896Y-88560515D01*
X151352077Y-88573270D01*
X151365323Y-88585978D01*
X151378636Y-88598638D01*
X151392016Y-88611252D01*
X151405462Y-88623818D01*
X151418974Y-88636338D01*
X151432553Y-88648810D01*
X151446199Y-88661235D01*
X151459911Y-88673613D01*
X151473691Y-88685943D01*
X151487537Y-88698227D01*
X151501451Y-88710463D01*
X151515432Y-88722653D01*
X151529480Y-88734795D01*
X151543596Y-88746889D01*
X151557779Y-88758937D01*
X151572030Y-88770937D01*
X151586348Y-88782890D01*
X151600735Y-88794795D01*
X151615189Y-88806653D01*
X151629711Y-88818464D01*
X151644302Y-88830227D01*
X151658960Y-88841942D01*
X151673687Y-88853610D01*
X151688483Y-88865230D01*
X151703347Y-88876803D01*
X151718280Y-88888328D01*
X151733281Y-88899805D01*
X151748351Y-88911234D01*
X151763490Y-88922615D01*
X151778698Y-88933948D01*
X151793975Y-88945233D01*
X151809322Y-88956470D01*
X151824737Y-88967659D01*
X151840222Y-88978799D01*
X151855777Y-88989892D01*
X151871401Y-89000935D01*
X151887094Y-89011930D01*
X151902858Y-89022877D01*
X151918691Y-89033775D01*
X151934594Y-89044624D01*
X151950567Y-89055424D01*
X151966610Y-89066175D01*
X151982723Y-89076877D01*
X151998907Y-89087530D01*
X152015160Y-89098134D01*
X152031484Y-89108688D01*
X152047879Y-89119192D01*
X152064343Y-89129647D01*
X152080879Y-89140052D01*
X152097485Y-89150408D01*
X152114162Y-89160713D01*
X152130909Y-89170968D01*
X152147727Y-89181173D01*
X152164616Y-89191328D01*
X152181576Y-89201432D01*
X152198607Y-89211486D01*
X152215708Y-89221488D01*
X152232881Y-89231440D01*
X152250125Y-89241341D01*
X152267439Y-89251190D01*
X152284825Y-89260989D01*
X152302282Y-89270735D01*
X152319810Y-89280430D01*
X152337409Y-89290073D01*
X152355079Y-89299664D01*
X152372821Y-89309203D01*
X152390634Y-89318690D01*
X152408517Y-89328124D01*
X152426472Y-89337506D01*
X152444498Y-89346834D01*
X152462595Y-89356110D01*
X152480763Y-89365332D01*
X152499002Y-89374501D01*
X152517313Y-89383617D01*
X152535694Y-89392678D01*
X152554146Y-89401686D01*
X152572669Y-89410639D01*
X152591262Y-89419538D01*
X152609927Y-89428383D01*
X152628662Y-89437173D01*
X152647467Y-89445907D01*
X152666344Y-89454587D01*
X152685290Y-89463211D01*
X152704307Y-89471779D01*
X152723393Y-89480292D01*
X152742550Y-89488749D01*
X152761777Y-89497149D01*
X152781073Y-89505492D01*
X152800439Y-89513779D01*
X152819874Y-89522009D01*
X152839379Y-89530182D01*
X152858952Y-89538297D01*
X152878594Y-89546354D01*
X152898305Y-89554353D01*
X152918085Y-89562294D01*
X152937932Y-89570177D01*
X152957847Y-89578001D01*
X152977830Y-89585765D01*
X152997881Y-89593471D01*
X153017998Y-89601116D01*
X153038182Y-89608702D01*
X153058433Y-89616228D01*
X153078749Y-89623693D01*
X153099132Y-89631098D01*
X153119580Y-89638441D01*
X153140092Y-89645723D01*
X153160670Y-89652944D01*
X153181311Y-89660103D01*
X153202017Y-89667199D01*
X153222785Y-89674233D01*
X153243616Y-89681204D01*
X153264510Y-89688112D01*
X153285465Y-89694957D01*
X153306481Y-89701737D01*
X153327558Y-89708454D01*
X153348695Y-89715106D01*
X153369891Y-89721693D01*
X153391145Y-89728215D01*
X153412458Y-89734672D01*
X153433828Y-89741063D01*
X153455254Y-89747388D01*
X153476737Y-89753646D01*
X153498274Y-89759837D01*
X153519865Y-89765961D01*
X153541509Y-89772018D01*
X153563205Y-89778006D01*
X153584953Y-89783926D01*
X153606750Y-89789777D01*
X153628597Y-89795560D01*
X153650492Y-89801272D01*
X153672434Y-89806915D01*
X153694422Y-89812487D01*
X153716454Y-89817989D01*
X153738529Y-89823419D01*
X153760646Y-89828778D01*
X153782804Y-89834065D01*
X153805000Y-89839279D01*
X153827233Y-89844421D01*
X153849502Y-89849489D01*
X153871806Y-89854484D01*
X153894141Y-89859405D01*
X153916507Y-89864250D01*
X153938901Y-89869021D01*
X153961321Y-89873717D01*
X153983766Y-89878336D01*
X154006233Y-89882879D01*
X154028719Y-89887345D01*
X154051222Y-89891733D01*
X154073741Y-89896043D01*
X154096271Y-89900276D01*
X154118810Y-89904429D01*
X154141355Y-89908502D01*
X154163904Y-89912496D01*
X154186452Y-89916410D01*
X154208996Y-89920242D01*
X154231533Y-89923993D01*
X154254058Y-89927661D01*
X154276568Y-89931247D01*
X154299058Y-89934750D01*
X154321524Y-89938169D01*
X154343961Y-89941504D01*
X154366364Y-89944753D01*
X154388727Y-89947918D01*
X154411045Y-89950996D01*
X154433311Y-89953987D01*
X154455519Y-89956891D01*
X154477661Y-89959707D01*
X154499731Y-89962435D01*
X154521721Y-89965073D01*
X154543621Y-89967621D01*
X154565422Y-89970079D01*
X154587114Y-89972445D01*
X154608687Y-89974720D01*
X154630129Y-89976902D01*
X154651426Y-89978990D01*
X154672565Y-89980985D01*
X154693530Y-89982884D01*
X154714305Y-89984688D01*
X154734870Y-89986396D01*
X154755205Y-89988007D01*
X154775286Y-89989520D01*
X154795087Y-89990934D01*
X154814578Y-89992249D01*
X154833724Y-89993463D01*
X154852486Y-89994576D01*
X154870817Y-89995587D01*
X154888662Y-89996496D01*
X154905952Y-89997301D01*
X154922604Y-89998001D01*
X154938512Y-89998597D01*
X154953532Y-89999087D01*
X154967466Y-89999470D01*
X154980014Y-89999748D01*
X154990656Y-89999920D01*
X154998263Y-89999994D01*
X155000000Y-90000000D01*
X150000000Y-55000000D02*
X150000010Y-54987763D01*
X150000040Y-54975545D01*
X150000090Y-54963348D01*
X150000160Y-54951170D01*
X150000249Y-54939012D01*
X150000359Y-54926874D01*
X150000488Y-54914756D01*
X150000637Y-54902658D01*
X150000806Y-54890580D01*
X150000995Y-54878521D01*
X150001203Y-54866482D01*
X150001431Y-54854462D01*
X150001678Y-54842462D01*
X150001945Y-54830482D01*
X150002232Y-54818522D01*
X150002538Y-54806581D01*
X150002864Y-54794659D01*
X150003209Y-54782757D01*
X150003573Y-54770874D01*
X150003957Y-54759011D01*
X150004360Y-54747167D01*
X150004783Y-54735342D01*
X150005225Y-54723537D01*
X150005686Y-54711751D01*
X150006167Y-54699984D01*
X150006666Y-54688237D01*
X150007185Y-54676508D01*
X150007723Y-54664799D01*
X150008280Y-54653109D01*
X150008856Y-54641438D01*
X150009452Y-54629785D01*
X150010066Y-54618153D01*
X150010699Y-54606538D01*
X150011352Y-54594944D01*
X150012023Y-54583367D01*
X150012713Y-54571810D01*
X150013422Y-54560272D01*
X150014150Y-54548752D01*
X150014897Y-54537251D01*
X150015662Y-54525769D01*
X150016447Y-54514306D01*
X150017250Y-54502862D01*
X150018072Y-54491435D01*
X150018912Y-54480029D01*
X150019771Y-54468639D01*
X150020649Y-54457270D01*
X150021546Y-54445918D01*
X150022461Y-54434585D01*
X150023394Y-54423270D01*
X150024346Y-54411975D01*
X150025317Y-54400697D01*
X150026306Y-54389438D01*
X150027313Y-54378196D01*
X150028339Y-54366974D01*
X150029384Y-54355769D01*
X150030446Y-54344584D01*
X150031527Y-54333416D01*
X150032627Y-54322266D01*
X150033744Y-54311135D01*
X150034880Y-54300022D01*
X150036034Y-54288926D01*
X150037207Y-54277850D01*
X150038397Y-54266790D01*
X150039606Y-54255749D01*
X150040833Y-54244726D01*
X150042078Y-54233721D01*
X150043341Y-54222734D01*
X150044622Y-54211765D01*
X150045921Y-54200813D01*
X150047238Y-54189880D01*
X150048573Y-54178964D01*
X150049926Y-54168066D01*
X150051297Y-54157186D01*
X150052686Y-54146324D01*
X150054093Y-54135478D01*
X150055517Y-54124652D01*
X150056960Y-54113841D01*
X150058420Y-54103050D01*
X150059898Y-54092275D01*
X150061394Y-54081519D01*
X150062907Y-54070779D01*
X150064439Y-54060058D01*
X150065988Y-54049352D01*
X150067554Y-54038666D01*
X150069138Y-54027996D01*
X150070740Y-54017344D01*
X150072360Y-54006709D01*
X150073997Y-53996092D01*
X150075652Y-53985490D01*
X150077324Y-53974908D01*
X150079013Y-53964341D01*
X150080720Y-53953793D01*
X150082445Y-53943261D01*
X150084187Y-53932747D01*
X150085947Y-53922249D01*
X150087723Y-53911769D01*
X150089518Y-53901305D01*
X150091329Y-53890860D01*
X150093158Y-53880429D01*
X150095005Y-53870018D01*
X150096868Y-53859622D01*
X150098749Y-53849244D01*
X150100647Y-53838881D01*
X150102562Y-53828537D01*
X150104495Y-53818208D01*
X150106445Y-53807897D01*
X150108412Y-53797602D01*
X150110396Y-53787325D01*
X150112397Y-53777063D01*
X150114415Y-53766819D01*
X150116451Y-53756590D01*
X150118503Y-53746380D01*
X150120572Y-53736184D01*
X150122659Y-53726007D01*
X150124763Y-53715844D01*
X150126883Y-53705700D01*
X150129021Y-53695570D01*
X150131175Y-53685458D01*
X150133346Y-53675361D01*
X150135534Y-53665283D01*
X150137740Y-53655218D01*
X150139962Y-53645173D01*
X150142201Y-53635141D01*
X150144456Y-53625127D01*
X150146729Y-53615128D01*
X150149018Y-53605147D01*
X150151325Y-53595180D01*
X150153647Y-53585232D01*
X150155987Y-53575297D01*
X150158344Y-53565381D01*
X150160717Y-53555478D01*
X150163107Y-53545594D01*
X150165514Y-53535723D01*
X150167936Y-53525871D01*
X150170377Y-53516033D01*
X150172833Y-53506212D01*
X150175306Y-53496406D01*
X150177796Y-53486617D01*
X150180302Y-53476842D01*
X150182825Y-53467085D01*
X150185365Y-53457342D01*
X150187920Y-53447616D01*
X150190493Y-53437904D01*
X150193082Y-53428211D01*
X150195688Y-53418530D01*
X150198309Y-53408867D01*
X150200948Y-53399218D01*
X150203602Y-53389587D01*
X150206274Y-53379969D01*
X150208961Y-53370369D01*
X150211666Y-53360781D01*
X150214386Y-53351213D01*
X150217123Y-53341656D01*
X150219876Y-53332118D01*
X150222646Y-53322593D01*
X150225432Y-53313086D01*
X150228234Y-53303591D01*
X150231052Y-53294115D01*
X150233887Y-53284651D01*
X150236738Y-53275205D01*
X150239606Y-53265771D01*
X150242489Y-53256356D01*
X150245389Y-53246953D01*
X150248305Y-53237568D01*
X150251238Y-53228195D01*
X150254186Y-53218841D01*
X150260131Y-53200174D01*
X150266141Y-53181567D01*
X150272216Y-53163021D01*
X150278355Y-53144534D01*
X150284558Y-53126107D01*
X150290826Y-53107739D01*
X150297158Y-53089431D01*
X150303554Y-53071182D01*
X150310013Y-53052991D01*
X150316537Y-53034860D01*
X150323125Y-53016786D01*
X150329776Y-52998771D01*
X150336492Y-52980814D01*
X150343270Y-52962915D01*
X150350113Y-52945074D01*
X150357019Y-52927290D01*
X150363988Y-52909564D01*
X150371020Y-52891895D01*
X150378116Y-52874282D01*
X150385275Y-52856727D01*
X150392497Y-52839228D01*
X150399783Y-52821786D01*
X150407131Y-52804400D01*
X150414543Y-52787070D01*
X150422017Y-52769795D01*
X150429554Y-52752577D01*
X150437154Y-52735414D01*
X150444817Y-52718307D01*
X150452543Y-52701255D01*
X150460331Y-52684258D01*
X150468183Y-52667316D01*
X150476096Y-52650428D01*
X150484073Y-52633595D01*
X150492112Y-52616817D01*
X150500214Y-52600093D01*
X150508378Y-52583422D01*
X150516604Y-52566806D01*
X150524894Y-52550244D01*
X150533245Y-52533735D01*
X150541659Y-52517280D01*
X150550136Y-52500878D01*
X150558675Y-52484529D01*
X150567276Y-52468233D01*
X150575940Y-52451990D01*
X150584666Y-52435800D01*
X150593455Y-52419662D01*
X150602306Y-52403577D01*
X150611219Y-52387544D01*
X150620195Y-52371564D01*
X150629233Y-52355635D01*
X150638334Y-52339758D01*
X150647497Y-52323933D01*
X150656722Y-52308160D01*
X150666010Y-52292438D01*
X150675360Y-52276767D01*
X150684773Y-52261148D01*
X150694248Y-52245579D01*
X150703785Y-52230062D01*
X150713385Y-52214596D01*
X150723048Y-52199180D01*
X150732773Y-52183815D01*
X150742560Y-52168501D01*
X150752411Y-52153236D01*
X150762323Y-52138023D01*
X150772299Y-52122859D01*
X150782337Y-52107745D01*
X150792438Y-52092682D01*
X150802601Y-52077668D01*
X150812828Y-52062704D01*
X150823117Y-52047789D01*
X150833469Y-52032924D01*
X150843884Y-52018109D01*
X150854362Y-52003343D01*
X150864902Y-51988626D01*
X150875506Y-51973958D01*
X150886173Y-51959339D01*
X150896903Y-51944770D01*
X150907697Y-51930249D01*
X150918553Y-51915777D01*
X150929473Y-51901353D01*
X150940456Y-51886979D01*
X150951503Y-51872652D01*
X150962613Y-51858375D01*
X150973786Y-51844146D01*
X150985023Y-51829965D01*
X150996324Y-51815832D01*
X151007689Y-51801747D01*
X151019117Y-51787711D01*
X151030609Y-51773723D01*
X151042166Y-51759782D01*
X151053786Y-51745890D01*
X151065470Y-51732045D01*
X151077218Y-51718249D01*
X151089031Y-51704500D01*
X151100908Y-51690798D01*
X151112849Y-51677145D01*
X151124855Y-51663539D01*
X151136925Y-51649980D01*
X151149060Y-51636469D01*
X151161260Y-51623006D01*
X151173524Y-51609590D01*
X151185853Y-51596221D01*
X151198247Y-51582900D01*
X151210707Y-51569626D01*
X151223231Y-51556400D01*
X151235821Y-51543220D01*
X151248476Y-51530088D01*
X151261196Y-51517003D01*
X151273982Y-51503966D01*
X151286833Y-51490975D01*
X151299750Y-51478032D01*
X151312733Y-51465136D01*
X151325781Y-51452287D01*
X151338896Y-51439485D01*
X151352077Y-51426730D01*
X151365323Y-51414022D01*
X151378636Y-51401362D01*
X151392016Y-51388748D01*
X151405462Y-51376182D01*
X151418974Y-51363662D01*
X151432553Y-51351190D01*
X151446199Y-51338765D01*
X151459911Y-51326387D01*
X151473691Y-51314057D01*
X151487537Y-51301773D01*
X151501451Y-51289537D01*
X151515432Y-51277347D01*
X151529480Y-51265205D01*
X151543596Y-51253111D01*
X151557779Y-51241063D01*
X151572030Y-51229063D01*
X151586348Y-51217110D01*
X151600735Y-51205205D01*
X151615189Y-51193347D01*
X151629711Y-51181536D01*
X151644302Y-51169773D01*
X151658960Y-51158058D01*
X151673687Y-51146390D01*
X151688483Y-51134770D01*
X151703347Y-51123197D01*
X151718280Y-51111672D01*
X151733281Y-51100195D01*
X151748351Y-51088766D01*
X151763490Y-51077385D01*
X151778698Y-51066052D01*
X151793975Y-51054767D01*
X151809322Y-51043530D01*
X151824737Y-51032341D01*
X151840222Y-51021201D01*
X151855777Y-51010108D01*
X151871401Y-50999065D01*
X151887094Y-50988070D01*
X151902858Y-50977123D01*
X151918691Y-50966225D01*
X151934594Y-50955376D01*
X151950567Y-50944576D01*
X151966610Y-50933825D01*
X151982723Y-50923123D01*
X151998907Y-50912470D01*
X152015160Y-50901866D01*
X152031484Y-50891312D01*
X152047879Y-50880808D01*
X152064343Y-50870353D01*
X152080879Y-50859948D01*
X152097485Y-50849592D01*
X152114162Y-50839287D01*
X152130909Y-50829032D01*
X152147727Y-50818827D01*
X152164616Y-50808672D01*
X152181576Y-50798568D01*
X152198607Y-50788514D01*
X152215708Y-50778512D01*
X152232881Y-50768560D01*
X152250125Y-50758659D01*
X152267439Y-50748810D01*
X152284825Y-50739011D01*
X152302282Y-50729265D01*
X152319810Y-50719570D01*
X152337409Y-50709927D01*
X152355079Y-50700336D01*
X152372821Y-50690797D01*
X152390634Y-50681310D01*
X152408517Y-50671876D01*
X152426472Y-50662494D01*
X152444498Y-50653166D01*
X152462595Y-50643890D01*
X152480763Y-50634668D01*
X152499002Y-50625499D01*
X152517313Y-50616383D01*
X152535694Y-50607322D01*
X152554146Y-50598314D01*
X152572669Y-50589361D01*
X152591262Y-50580462D01*
X152609927Y-50571617D01*
X152628662Y-50562827D01*
X152647467Y-50554093D01*
X152666344Y-50545413D01*
X152685290Y-50536789D01*
X152704307Y-50528221D01*
X152723393Y-50519708D01*
X152742550Y-50511251D01*
X152761777Y-50502851D01*
X152781073Y-50494508D01*
X152800439Y-50486221D01*
X152819874Y-50477991D01*
X152839379Y-50469818D01*
X152858952Y-50461703D01*
X152878594Y-50453646D01*
X152898305Y-50445647D01*
X152918085Y-50437706D01*
X152937932Y-50429823D01*
X152957847Y-50421999D01*
X152977830Y-50414235D01*
X152997881Y-50406529D01*
X153017998Y-50398884D01*
X153038182Y-50391298D01*
X153058433Y-50383772D01*
X153078749Y-50376307D01*
X153099132Y-50368902D01*
X153119580Y-50361559D01*
X153140092Y-50354277D01*
X153160670Y-50347056D01*
X153181311Y-50339897D01*
X153202017Y-50332801D01*
X153222785Y-50325767D01*
X153243616Y-50318796D01*
X153264510Y-50311888D01*
X153285465Y-50305043D01*
X153306481Y-50298263D01*
X153327558Y-50291546D01*
X153348695Y-50284894D01*
X153369891Y-50278307D01*
X153391145Y-50271785D01*
X153412458Y-50265328D01*
X153433828Y-50258937D01*
X153455254Y-50252612D01*
X153476737Y-50246354D01*
X153498274Y-50240163D01*
X153519865Y-50234039D01*
X153541509Y-50227982D01*
X153563205Y-50221994D01*
X153584953Y-50216074D01*
X153606750Y-50210223D01*
X153628597Y-50204440D01*
X153650492Y-50198728D01*
X153672434Y-50193085D01*
X153694422Y-50187513D01*
X153716454Y-50182011D01*
X153738529Y-50176581D01*
X153760646Y-50171222D01*
X153782804Y-50165935D01*
X153805000Y-50160721D01*
X153827233Y-50155579D01*
X153849502Y-50150511D01*
X153871806Y-50145516D01*
X153894141Y-50140595D01*
X153916507Y-50135750D01*
X153938901Y-50130979D01*
X153961321Y-50126283D01*
X153983766Y-50121664D01*
X154006233Y-50117121D01*
X154028719Y-50112655D01*
X154051222Y-50108267D01*
X154073741Y-50103957D01*
X154096271Y-50099724D01*
X154118810Y-50095571D01*
X154141355Y-50091498D01*
X154163904Y-50087504D01*
X154186452Y-50083590D01*
X154208996Y-50079758D01*
X154231533Y-50076007D01*
X154254058Y-50072339D01*
X154276568Y-50068753D01*
X154299058Y-50065250D01*
X154321524Y-50061831D01*
X154343961Y-50058496D01*
X154366364Y-50055247D01*
X154388727Y-50052082D01*
X154411045Y-50049004D01*
X154433311Y-50046013D01*
X154455519Y-50043109D01*
X154477661Y-50040293D01*
X154499731Y-50037565D01*
X154521721Y-50034927D01*
X154543621Y-50032379D01*
X154565422Y-50029921D01*
X154587114Y-50027555D01*
X154608687Y-50025280D01*
X154630129Y-50023098D01*
X154651426Y-50021010D01*
X154672565Y-50019015D01*
X154693530Y-50017116D01*
X154714305Y-50015312D01*
X154734870Y-50013604D01*
X154755205Y-50011993D01*
X154775286Y-50010480D01*
X154795087Y-50009066D01*
X154814578Y-50007751D01*
X154833724Y-50006537D01*
X154852486Y-50005424D01*
X154870817Y-50004413D01*
X154888662Y-50003504D01*
X154905952Y-50002699D01*
X154922604Y-50001999D01*
X154938512Y-50001403D01*
X154953532Y-50000913D01*
X154967466Y-50000530D01*
X154980014Y-50000252D01*
X154990656Y-50000080D01*
X154998263Y-50000006D01*
X155000000Y-50000000D01*
X150000000Y-85000000D02*
X150000000Y-55000000D01*
X185000000Y-90000000D02*
X155000000Y-90000000D01*
X190000000Y-54500000D02*
X190000000Y-84500000D01*
X190000000Y-57990000D02*
X190000000Y-57990000D01*
X155000000Y-50000000D02*
X185000000Y-50000000D01*
D11*
X169158095Y-52004819D02*
X169158095Y-52814342D01*
X169158095Y-52814342D02*
X169205714Y-52909580D01*
X169205714Y-52909580D02*
X169253333Y-52957200D01*
X169253333Y-52957200D02*
X169348571Y-53004819D01*
X169348571Y-53004819D02*
X169539047Y-53004819D01*
X169539047Y-53004819D02*
X169634285Y-52957200D01*
X169634285Y-52957200D02*
X169681904Y-52909580D01*
X169681904Y-52909580D02*
X169729523Y-52814342D01*
X169729523Y-52814342D02*
X169729523Y-52004819D01*
X170729523Y-53004819D02*
X170158095Y-53004819D01*
X170443809Y-53004819D02*
X170443809Y-52004819D01*
X170443809Y-52004819D02*
X170348571Y-52147676D01*
X170348571Y-52147676D02*
X170253333Y-52242914D01*
X170253333Y-52242914D02*
X170158095Y-52290533D01*
X182954819Y-85883333D02*
X183669104Y-85883333D01*
X183669104Y-85883333D02*
X183811961Y-85930952D01*
X183811961Y-85930952D02*
X183907200Y-86026190D01*
X183907200Y-86026190D02*
X183954819Y-86169047D01*
X183954819Y-86169047D02*
X183954819Y-86264285D01*
X183954819Y-85407142D02*
X182954819Y-85407142D01*
X182954819Y-85407142D02*
X182954819Y-85026190D01*
X182954819Y-85026190D02*
X183002438Y-84930952D01*
X183002438Y-84930952D02*
X183050057Y-84883333D01*
X183050057Y-84883333D02*
X183145295Y-84835714D01*
X183145295Y-84835714D02*
X183288152Y-84835714D01*
X183288152Y-84835714D02*
X183383390Y-84883333D01*
X183383390Y-84883333D02*
X183431009Y-84930952D01*
X183431009Y-84930952D02*
X183478628Y-85026190D01*
X183478628Y-85026190D02*
X183478628Y-85407142D01*
X183050057Y-84454761D02*
X183002438Y-84407142D01*
X183002438Y-84407142D02*
X182954819Y-84311904D01*
X182954819Y-84311904D02*
X182954819Y-84073809D01*
X182954819Y-84073809D02*
X183002438Y-83978571D01*
X183002438Y-83978571D02*
X183050057Y-83930952D01*
X183050057Y-83930952D02*
X183145295Y-83883333D01*
X183145295Y-83883333D02*
X183240533Y-83883333D01*
X183240533Y-83883333D02*
X183383390Y-83930952D01*
X183383390Y-83930952D02*
X183954819Y-84502380D01*
X183954819Y-84502380D02*
X183954819Y-83883333D01*
X157761905Y-59454819D02*
X157761905Y-58454819D01*
X157761905Y-58454819D02*
X158000000Y-58454819D01*
X158000000Y-58454819D02*
X158142857Y-58502438D01*
X158142857Y-58502438D02*
X158238095Y-58597676D01*
X158238095Y-58597676D02*
X158285714Y-58692914D01*
X158285714Y-58692914D02*
X158333333Y-58883390D01*
X158333333Y-58883390D02*
X158333333Y-59026247D01*
X158333333Y-59026247D02*
X158285714Y-59216723D01*
X158285714Y-59216723D02*
X158238095Y-59311961D01*
X158238095Y-59311961D02*
X158142857Y-59407200D01*
X158142857Y-59407200D02*
X158000000Y-59454819D01*
X158000000Y-59454819D02*
X157761905Y-59454819D01*
X159285714Y-59454819D02*
X158714286Y-59454819D01*
X159000000Y-59454819D02*
X159000000Y-58454819D01*
X159000000Y-58454819D02*
X158904762Y-58597676D01*
X158904762Y-58597676D02*
X158809524Y-58692914D01*
X158809524Y-58692914D02*
X158714286Y-58740533D01*
X183761905Y-57584819D02*
X183761905Y-56584819D01*
X183761905Y-56584819D02*
X184000000Y-56584819D01*
X184000000Y-56584819D02*
X184142857Y-56632438D01*
X184142857Y-56632438D02*
X184238095Y-56727676D01*
X184238095Y-56727676D02*
X184285714Y-56822914D01*
X184285714Y-56822914D02*
X184333333Y-57013390D01*
X184333333Y-57013390D02*
X184333333Y-57156247D01*
X184333333Y-57156247D02*
X184285714Y-57346723D01*
X184285714Y-57346723D02*
X184238095Y-57441961D01*
X184238095Y-57441961D02*
X184142857Y-57537200D01*
X184142857Y-57537200D02*
X184000000Y-57584819D01*
X184000000Y-57584819D02*
X183761905Y-57584819D01*
X185238095Y-56584819D02*
X184761905Y-56584819D01*
X184761905Y-56584819D02*
X184714286Y-57061009D01*
X184714286Y-57061009D02*
X184761905Y-57013390D01*
X184761905Y-57013390D02*
X184857143Y-56965771D01*
X184857143Y-56965771D02*
X185095238Y-56965771D01*
X185095238Y-56965771D02*
X185190476Y-57013390D01*
X185190476Y-57013390D02*
X185238095Y-57061009D01*
X185238095Y-57061009D02*
X185285714Y-57156247D01*
X185285714Y-57156247D02*
X185285714Y-57394342D01*
X185285714Y-57394342D02*
X185238095Y-57489580D01*
X185238095Y-57489580D02*
X185190476Y-57537200D01*
X185190476Y-57537200D02*
X185095238Y-57584819D01*
X185095238Y-57584819D02*
X184857143Y-57584819D01*
X184857143Y-57584819D02*
X184761905Y-57537200D01*
X184761905Y-57537200D02*
X184714286Y-57489580D01*
X183761905Y-61874819D02*
X183761905Y-60874819D01*
X183761905Y-60874819D02*
X184000000Y-60874819D01*
X184000000Y-60874819D02*
X184142857Y-60922438D01*
X184142857Y-60922438D02*
X184238095Y-61017676D01*
X184238095Y-61017676D02*
X184285714Y-61112914D01*
X184285714Y-61112914D02*
X184333333Y-61303390D01*
X184333333Y-61303390D02*
X184333333Y-61446247D01*
X184333333Y-61446247D02*
X184285714Y-61636723D01*
X184285714Y-61636723D02*
X184238095Y-61731961D01*
X184238095Y-61731961D02*
X184142857Y-61827200D01*
X184142857Y-61827200D02*
X184000000Y-61874819D01*
X184000000Y-61874819D02*
X183761905Y-61874819D01*
X185190476Y-60874819D02*
X185000000Y-60874819D01*
X185000000Y-60874819D02*
X184904762Y-60922438D01*
X184904762Y-60922438D02*
X184857143Y-60970057D01*
X184857143Y-60970057D02*
X184761905Y-61112914D01*
X184761905Y-61112914D02*
X184714286Y-61303390D01*
X184714286Y-61303390D02*
X184714286Y-61684342D01*
X184714286Y-61684342D02*
X184761905Y-61779580D01*
X184761905Y-61779580D02*
X184809524Y-61827200D01*
X184809524Y-61827200D02*
X184904762Y-61874819D01*
X184904762Y-61874819D02*
X185095238Y-61874819D01*
X185095238Y-61874819D02*
X185190476Y-61827200D01*
X185190476Y-61827200D02*
X185238095Y-61779580D01*
X185238095Y-61779580D02*
X185285714Y-61684342D01*
X185285714Y-61684342D02*
X185285714Y-61446247D01*
X185285714Y-61446247D02*
X185238095Y-61351009D01*
X185238095Y-61351009D02*
X185190476Y-61303390D01*
X185190476Y-61303390D02*
X185095238Y-61255771D01*
X185095238Y-61255771D02*
X184904762Y-61255771D01*
X184904762Y-61255771D02*
X184809524Y-61303390D01*
X184809524Y-61303390D02*
X184761905Y-61351009D01*
X184761905Y-61351009D02*
X184714286Y-61446247D01*
X183761905Y-66164819D02*
X183761905Y-65164819D01*
X183761905Y-65164819D02*
X184000000Y-65164819D01*
X184000000Y-65164819D02*
X184142857Y-65212438D01*
X184142857Y-65212438D02*
X184238095Y-65307676D01*
X184238095Y-65307676D02*
X184285714Y-65402914D01*
X184285714Y-65402914D02*
X184333333Y-65593390D01*
X184333333Y-65593390D02*
X184333333Y-65736247D01*
X184333333Y-65736247D02*
X184285714Y-65926723D01*
X184285714Y-65926723D02*
X184238095Y-66021961D01*
X184238095Y-66021961D02*
X184142857Y-66117200D01*
X184142857Y-66117200D02*
X184000000Y-66164819D01*
X184000000Y-66164819D02*
X183761905Y-66164819D01*
X184666667Y-65164819D02*
X185333333Y-65164819D01*
X185333333Y-65164819D02*
X184904762Y-66164819D01*
X183761905Y-70454819D02*
X183761905Y-69454819D01*
X183761905Y-69454819D02*
X184000000Y-69454819D01*
X184000000Y-69454819D02*
X184142857Y-69502438D01*
X184142857Y-69502438D02*
X184238095Y-69597676D01*
X184238095Y-69597676D02*
X184285714Y-69692914D01*
X184285714Y-69692914D02*
X184333333Y-69883390D01*
X184333333Y-69883390D02*
X184333333Y-70026247D01*
X184333333Y-70026247D02*
X184285714Y-70216723D01*
X184285714Y-70216723D02*
X184238095Y-70311961D01*
X184238095Y-70311961D02*
X184142857Y-70407200D01*
X184142857Y-70407200D02*
X184000000Y-70454819D01*
X184000000Y-70454819D02*
X183761905Y-70454819D01*
X184904762Y-69883390D02*
X184809524Y-69835771D01*
X184809524Y-69835771D02*
X184761905Y-69788152D01*
X184761905Y-69788152D02*
X184714286Y-69692914D01*
X184714286Y-69692914D02*
X184714286Y-69645295D01*
X184714286Y-69645295D02*
X184761905Y-69550057D01*
X184761905Y-69550057D02*
X184809524Y-69502438D01*
X184809524Y-69502438D02*
X184904762Y-69454819D01*
X184904762Y-69454819D02*
X185095238Y-69454819D01*
X185095238Y-69454819D02*
X185190476Y-69502438D01*
X185190476Y-69502438D02*
X185238095Y-69550057D01*
X185238095Y-69550057D02*
X185285714Y-69645295D01*
X185285714Y-69645295D02*
X185285714Y-69692914D01*
X185285714Y-69692914D02*
X185238095Y-69788152D01*
X185238095Y-69788152D02*
X185190476Y-69835771D01*
X185190476Y-69835771D02*
X185095238Y-69883390D01*
X185095238Y-69883390D02*
X184904762Y-69883390D01*
X184904762Y-69883390D02*
X184809524Y-69931009D01*
X184809524Y-69931009D02*
X184761905Y-69978628D01*
X184761905Y-69978628D02*
X184714286Y-70073866D01*
X184714286Y-70073866D02*
X184714286Y-70264342D01*
X184714286Y-70264342D02*
X184761905Y-70359580D01*
X184761905Y-70359580D02*
X184809524Y-70407200D01*
X184809524Y-70407200D02*
X184904762Y-70454819D01*
X184904762Y-70454819D02*
X185095238Y-70454819D01*
X185095238Y-70454819D02*
X185190476Y-70407200D01*
X185190476Y-70407200D02*
X185238095Y-70359580D01*
X185238095Y-70359580D02*
X185285714Y-70264342D01*
X185285714Y-70264342D02*
X185285714Y-70073866D01*
X185285714Y-70073866D02*
X185238095Y-69978628D01*
X185238095Y-69978628D02*
X185190476Y-69931009D01*
X185190476Y-69931009D02*
X185095238Y-69883390D01*
X158261905Y-70454819D02*
X158261905Y-69454819D01*
X158261905Y-69454819D02*
X158500000Y-69454819D01*
X158500000Y-69454819D02*
X158642857Y-69502438D01*
X158642857Y-69502438D02*
X158738095Y-69597676D01*
X158738095Y-69597676D02*
X158785714Y-69692914D01*
X158785714Y-69692914D02*
X158833333Y-69883390D01*
X158833333Y-69883390D02*
X158833333Y-70026247D01*
X158833333Y-70026247D02*
X158785714Y-70216723D01*
X158785714Y-70216723D02*
X158738095Y-70311961D01*
X158738095Y-70311961D02*
X158642857Y-70407200D01*
X158642857Y-70407200D02*
X158500000Y-70454819D01*
X158500000Y-70454819D02*
X158261905Y-70454819D01*
X159690476Y-69788152D02*
X159690476Y-70454819D01*
X159452381Y-69407200D02*
X159214286Y-70121485D01*
X159214286Y-70121485D02*
X159833333Y-70121485D01*
X157761905Y-63954819D02*
X157761905Y-62954819D01*
X157761905Y-62954819D02*
X158000000Y-62954819D01*
X158000000Y-62954819D02*
X158142857Y-63002438D01*
X158142857Y-63002438D02*
X158238095Y-63097676D01*
X158238095Y-63097676D02*
X158285714Y-63192914D01*
X158285714Y-63192914D02*
X158333333Y-63383390D01*
X158333333Y-63383390D02*
X158333333Y-63526247D01*
X158333333Y-63526247D02*
X158285714Y-63716723D01*
X158285714Y-63716723D02*
X158238095Y-63811961D01*
X158238095Y-63811961D02*
X158142857Y-63907200D01*
X158142857Y-63907200D02*
X158000000Y-63954819D01*
X158000000Y-63954819D02*
X157761905Y-63954819D01*
X158714286Y-63050057D02*
X158761905Y-63002438D01*
X158761905Y-63002438D02*
X158857143Y-62954819D01*
X158857143Y-62954819D02*
X159095238Y-62954819D01*
X159095238Y-62954819D02*
X159190476Y-63002438D01*
X159190476Y-63002438D02*
X159238095Y-63050057D01*
X159238095Y-63050057D02*
X159285714Y-63145295D01*
X159285714Y-63145295D02*
X159285714Y-63240533D01*
X159285714Y-63240533D02*
X159238095Y-63383390D01*
X159238095Y-63383390D02*
X158666667Y-63954819D01*
X158666667Y-63954819D02*
X159285714Y-63954819D01*
X158261905Y-67454819D02*
X158261905Y-66454819D01*
X158261905Y-66454819D02*
X158500000Y-66454819D01*
X158500000Y-66454819D02*
X158642857Y-66502438D01*
X158642857Y-66502438D02*
X158738095Y-66597676D01*
X158738095Y-66597676D02*
X158785714Y-66692914D01*
X158785714Y-66692914D02*
X158833333Y-66883390D01*
X158833333Y-66883390D02*
X158833333Y-67026247D01*
X158833333Y-67026247D02*
X158785714Y-67216723D01*
X158785714Y-67216723D02*
X158738095Y-67311961D01*
X158738095Y-67311961D02*
X158642857Y-67407200D01*
X158642857Y-67407200D02*
X158500000Y-67454819D01*
X158500000Y-67454819D02*
X158261905Y-67454819D01*
X159166667Y-66454819D02*
X159785714Y-66454819D01*
X159785714Y-66454819D02*
X159452381Y-66835771D01*
X159452381Y-66835771D02*
X159595238Y-66835771D01*
X159595238Y-66835771D02*
X159690476Y-66883390D01*
X159690476Y-66883390D02*
X159738095Y-66931009D01*
X159738095Y-66931009D02*
X159785714Y-67026247D01*
X159785714Y-67026247D02*
X159785714Y-67264342D01*
X159785714Y-67264342D02*
X159738095Y-67359580D01*
X159738095Y-67359580D02*
X159690476Y-67407200D01*
X159690476Y-67407200D02*
X159595238Y-67454819D01*
X159595238Y-67454819D02*
X159309524Y-67454819D01*
X159309524Y-67454819D02*
X159214286Y-67407200D01*
X159214286Y-67407200D02*
X159166667Y-67359580D01*
X167920833Y-76804819D02*
X167587500Y-76328628D01*
X167349405Y-76804819D02*
X167349405Y-75804819D01*
X167349405Y-75804819D02*
X167730357Y-75804819D01*
X167730357Y-75804819D02*
X167825595Y-75852438D01*
X167825595Y-75852438D02*
X167873214Y-75900057D01*
X167873214Y-75900057D02*
X167920833Y-75995295D01*
X167920833Y-75995295D02*
X167920833Y-76138152D01*
X167920833Y-76138152D02*
X167873214Y-76233390D01*
X167873214Y-76233390D02*
X167825595Y-76281009D01*
X167825595Y-76281009D02*
X167730357Y-76328628D01*
X167730357Y-76328628D02*
X167349405Y-76328628D01*
X168254167Y-75804819D02*
X168873214Y-75804819D01*
X168873214Y-75804819D02*
X168539881Y-76185771D01*
X168539881Y-76185771D02*
X168682738Y-76185771D01*
X168682738Y-76185771D02*
X168777976Y-76233390D01*
X168777976Y-76233390D02*
X168825595Y-76281009D01*
X168825595Y-76281009D02*
X168873214Y-76376247D01*
X168873214Y-76376247D02*
X168873214Y-76614342D01*
X168873214Y-76614342D02*
X168825595Y-76709580D01*
X168825595Y-76709580D02*
X168777976Y-76757200D01*
X168777976Y-76757200D02*
X168682738Y-76804819D01*
X168682738Y-76804819D02*
X168397024Y-76804819D01*
X168397024Y-76804819D02*
X168301786Y-76757200D01*
X168301786Y-76757200D02*
X168254167Y-76709580D01*
X178245833Y-78304819D02*
X177912500Y-77828628D01*
X177674405Y-78304819D02*
X177674405Y-77304819D01*
X177674405Y-77304819D02*
X178055357Y-77304819D01*
X178055357Y-77304819D02*
X178150595Y-77352438D01*
X178150595Y-77352438D02*
X178198214Y-77400057D01*
X178198214Y-77400057D02*
X178245833Y-77495295D01*
X178245833Y-77495295D02*
X178245833Y-77638152D01*
X178245833Y-77638152D02*
X178198214Y-77733390D01*
X178198214Y-77733390D02*
X178150595Y-77781009D01*
X178150595Y-77781009D02*
X178055357Y-77828628D01*
X178055357Y-77828628D02*
X177674405Y-77828628D01*
X178626786Y-77400057D02*
X178674405Y-77352438D01*
X178674405Y-77352438D02*
X178769643Y-77304819D01*
X178769643Y-77304819D02*
X179007738Y-77304819D01*
X179007738Y-77304819D02*
X179102976Y-77352438D01*
X179102976Y-77352438D02*
X179150595Y-77400057D01*
X179150595Y-77400057D02*
X179198214Y-77495295D01*
X179198214Y-77495295D02*
X179198214Y-77590533D01*
X179198214Y-77590533D02*
X179150595Y-77733390D01*
X179150595Y-77733390D02*
X178579167Y-78304819D01*
X178579167Y-78304819D02*
X179198214Y-78304819D01*
X160158333Y-71954819D02*
X159825000Y-71478628D01*
X159586905Y-71954819D02*
X159586905Y-70954819D01*
X159586905Y-70954819D02*
X159967857Y-70954819D01*
X159967857Y-70954819D02*
X160063095Y-71002438D01*
X160063095Y-71002438D02*
X160110714Y-71050057D01*
X160110714Y-71050057D02*
X160158333Y-71145295D01*
X160158333Y-71145295D02*
X160158333Y-71288152D01*
X160158333Y-71288152D02*
X160110714Y-71383390D01*
X160110714Y-71383390D02*
X160063095Y-71431009D01*
X160063095Y-71431009D02*
X159967857Y-71478628D01*
X159967857Y-71478628D02*
X159586905Y-71478628D01*
X161110714Y-71954819D02*
X160539286Y-71954819D01*
X160825000Y-71954819D02*
X160825000Y-70954819D01*
X160825000Y-70954819D02*
X160729762Y-71097676D01*
X160729762Y-71097676D02*
X160634524Y-71192914D01*
X160634524Y-71192914D02*
X160539286Y-71240533D01*
X179833333Y-73954819D02*
X179357143Y-73954819D01*
X179357143Y-73954819D02*
X179357143Y-72954819D01*
X180119048Y-73050057D02*
X180166667Y-73002438D01*
X180166667Y-73002438D02*
X180261905Y-72954819D01*
X180261905Y-72954819D02*
X180500000Y-72954819D01*
X180500000Y-72954819D02*
X180595238Y-73002438D01*
X180595238Y-73002438D02*
X180642857Y-73050057D01*
X180642857Y-73050057D02*
X180690476Y-73145295D01*
X180690476Y-73145295D02*
X180690476Y-73240533D01*
X180690476Y-73240533D02*
X180642857Y-73383390D01*
X180642857Y-73383390D02*
X180071429Y-73954819D01*
X180071429Y-73954819D02*
X180690476Y-73954819D01*
X160833333Y-78454819D02*
X160357143Y-78454819D01*
X160357143Y-78454819D02*
X160357143Y-77454819D01*
X161690476Y-78454819D02*
X161119048Y-78454819D01*
X161404762Y-78454819D02*
X161404762Y-77454819D01*
X161404762Y-77454819D02*
X161309524Y-77597676D01*
X161309524Y-77597676D02*
X161214286Y-77692914D01*
X161214286Y-77692914D02*
X161119048Y-77740533D01*
X160166666Y-79954819D02*
X160166666Y-80669104D01*
X160166666Y-80669104D02*
X160119047Y-80811961D01*
X160119047Y-80811961D02*
X160023809Y-80907200D01*
X160023809Y-80907200D02*
X159880952Y-80954819D01*
X159880952Y-80954819D02*
X159785714Y-80954819D01*
X160547619Y-79954819D02*
X161166666Y-79954819D01*
X161166666Y-79954819D02*
X160833333Y-80335771D01*
X160833333Y-80335771D02*
X160976190Y-80335771D01*
X160976190Y-80335771D02*
X161071428Y-80383390D01*
X161071428Y-80383390D02*
X161119047Y-80431009D01*
X161119047Y-80431009D02*
X161166666Y-80526247D01*
X161166666Y-80526247D02*
X161166666Y-80764342D01*
X161166666Y-80764342D02*
X161119047Y-80859580D01*
X161119047Y-80859580D02*
X161071428Y-80907200D01*
X161071428Y-80907200D02*
X160976190Y-80954819D01*
X160976190Y-80954819D02*
X160690476Y-80954819D01*
X160690476Y-80954819D02*
X160595238Y-80907200D01*
X160595238Y-80907200D02*
X160547619Y-80859580D01*
X158954819Y-78333333D02*
X159669104Y-78333333D01*
X159669104Y-78333333D02*
X159811961Y-78380952D01*
X159811961Y-78380952D02*
X159907200Y-78476190D01*
X159907200Y-78476190D02*
X159954819Y-78619047D01*
X159954819Y-78619047D02*
X159954819Y-78714285D01*
X159954819Y-77333333D02*
X159954819Y-77904761D01*
X159954819Y-77619047D02*
X158954819Y-77619047D01*
X158954819Y-77619047D02*
X159097676Y-77714285D01*
X159097676Y-77714285D02*
X159192914Y-77809523D01*
X159192914Y-77809523D02*
X159240533Y-77904761D01*
X173153095Y-64527319D02*
X173153095Y-65336842D01*
X173153095Y-65336842D02*
X173200714Y-65432080D01*
X173200714Y-65432080D02*
X173248333Y-65479700D01*
X173248333Y-65479700D02*
X173343571Y-65527319D01*
X173343571Y-65527319D02*
X173534047Y-65527319D01*
X173534047Y-65527319D02*
X173629285Y-65479700D01*
X173629285Y-65479700D02*
X173676904Y-65432080D01*
X173676904Y-65432080D02*
X173724523Y-65336842D01*
X173724523Y-65336842D02*
X173724523Y-64527319D01*
X174153095Y-64622557D02*
X174200714Y-64574938D01*
X174200714Y-64574938D02*
X174295952Y-64527319D01*
X174295952Y-64527319D02*
X174534047Y-64527319D01*
X174534047Y-64527319D02*
X174629285Y-64574938D01*
X174629285Y-64574938D02*
X174676904Y-64622557D01*
X174676904Y-64622557D02*
X174724523Y-64717795D01*
X174724523Y-64717795D02*
X174724523Y-64813033D01*
X174724523Y-64813033D02*
X174676904Y-64955890D01*
X174676904Y-64955890D02*
X174105476Y-65527319D01*
X174105476Y-65527319D02*
X174724523Y-65527319D01*
X172583333Y-77109580D02*
X172535714Y-77157200D01*
X172535714Y-77157200D02*
X172392857Y-77204819D01*
X172392857Y-77204819D02*
X172297619Y-77204819D01*
X172297619Y-77204819D02*
X172154762Y-77157200D01*
X172154762Y-77157200D02*
X172059524Y-77061961D01*
X172059524Y-77061961D02*
X172011905Y-76966723D01*
X172011905Y-76966723D02*
X171964286Y-76776247D01*
X171964286Y-76776247D02*
X171964286Y-76633390D01*
X171964286Y-76633390D02*
X172011905Y-76442914D01*
X172011905Y-76442914D02*
X172059524Y-76347676D01*
X172059524Y-76347676D02*
X172154762Y-76252438D01*
X172154762Y-76252438D02*
X172297619Y-76204819D01*
X172297619Y-76204819D02*
X172392857Y-76204819D01*
X172392857Y-76204819D02*
X172535714Y-76252438D01*
X172535714Y-76252438D02*
X172583333Y-76300057D01*
X172964286Y-76300057D02*
X173011905Y-76252438D01*
X173011905Y-76252438D02*
X173107143Y-76204819D01*
X173107143Y-76204819D02*
X173345238Y-76204819D01*
X173345238Y-76204819D02*
X173440476Y-76252438D01*
X173440476Y-76252438D02*
X173488095Y-76300057D01*
X173488095Y-76300057D02*
X173535714Y-76395295D01*
X173535714Y-76395295D02*
X173535714Y-76490533D01*
X173535714Y-76490533D02*
X173488095Y-76633390D01*
X173488095Y-76633390D02*
X172916667Y-77204819D01*
X172916667Y-77204819D02*
X173535714Y-77204819D01*
X163083333Y-67109580D02*
X163035714Y-67157200D01*
X163035714Y-67157200D02*
X162892857Y-67204819D01*
X162892857Y-67204819D02*
X162797619Y-67204819D01*
X162797619Y-67204819D02*
X162654762Y-67157200D01*
X162654762Y-67157200D02*
X162559524Y-67061961D01*
X162559524Y-67061961D02*
X162511905Y-66966723D01*
X162511905Y-66966723D02*
X162464286Y-66776247D01*
X162464286Y-66776247D02*
X162464286Y-66633390D01*
X162464286Y-66633390D02*
X162511905Y-66442914D01*
X162511905Y-66442914D02*
X162559524Y-66347676D01*
X162559524Y-66347676D02*
X162654762Y-66252438D01*
X162654762Y-66252438D02*
X162797619Y-66204819D01*
X162797619Y-66204819D02*
X162892857Y-66204819D01*
X162892857Y-66204819D02*
X163035714Y-66252438D01*
X163035714Y-66252438D02*
X163083333Y-66300057D01*
X164035714Y-67204819D02*
X163464286Y-67204819D01*
X163750000Y-67204819D02*
X163750000Y-66204819D01*
X163750000Y-66204819D02*
X163654762Y-66347676D01*
X163654762Y-66347676D02*
X163559524Y-66442914D01*
X163559524Y-66442914D02*
X163464286Y-66490533D01*
X180734819Y-77603333D02*
X181449104Y-77603333D01*
X181449104Y-77603333D02*
X181591961Y-77650952D01*
X181591961Y-77650952D02*
X181687200Y-77746190D01*
X181687200Y-77746190D02*
X181734819Y-77889047D01*
X181734819Y-77889047D02*
X181734819Y-77984285D01*
X180830057Y-77174761D02*
X180782438Y-77127142D01*
X180782438Y-77127142D02*
X180734819Y-77031904D01*
X180734819Y-77031904D02*
X180734819Y-76793809D01*
X180734819Y-76793809D02*
X180782438Y-76698571D01*
X180782438Y-76698571D02*
X180830057Y-76650952D01*
X180830057Y-76650952D02*
X180925295Y-76603333D01*
X180925295Y-76603333D02*
X181020533Y-76603333D01*
X181020533Y-76603333D02*
X181163390Y-76650952D01*
X181163390Y-76650952D02*
X181734819Y-77222380D01*
X181734819Y-77222380D02*
X181734819Y-76603333D01*
D12*
%TO.C,U1*%
X180130000Y-58610000D02*
X178527000Y-58610000D01*
X180130000Y-53390000D02*
X180130000Y-58610000D01*
X179420000Y-58610000D02*
X179420000Y-62093000D01*
X178200000Y-58954000D02*
X178200000Y-62093000D01*
X176880000Y-58954000D02*
X176880000Y-62093000D01*
X176553000Y-58610000D02*
X175987000Y-58610000D01*
X175660000Y-58954000D02*
X175660000Y-62093000D01*
X174340000Y-58954000D02*
X174340000Y-62093000D01*
X174013000Y-58610000D02*
X173447000Y-58610000D01*
X173120000Y-58954000D02*
X173120000Y-62093000D01*
X171800000Y-58954000D02*
X171800000Y-62093000D01*
X171770000Y-53390000D02*
X171770000Y-55100000D01*
X171473000Y-58610000D02*
X170907000Y-58610000D01*
X170580000Y-58954000D02*
X170580000Y-62093000D01*
X169260000Y-58954000D02*
X169260000Y-62093000D01*
X168933000Y-58610000D02*
X168367000Y-58610000D01*
X168070000Y-53390000D02*
X168070000Y-55100000D01*
X168040000Y-58954000D02*
X168040000Y-62093000D01*
X166720000Y-58954000D02*
X166720000Y-62093000D01*
X166393000Y-58610000D02*
X165827000Y-58610000D01*
X165500000Y-58954000D02*
X165500000Y-62093000D01*
X164180000Y-58954000D02*
X164180000Y-62093000D01*
X163853000Y-58610000D02*
X163287000Y-58610000D01*
X162960000Y-58954000D02*
X162960000Y-62093000D01*
X161640000Y-58954000D02*
X161640000Y-61920000D01*
X161313000Y-58610000D02*
X159710000Y-58610000D01*
X160420000Y-58610000D02*
X160420000Y-61920000D01*
X159710000Y-58610000D02*
X159710000Y-53390000D01*
X159710000Y-55100000D02*
X180130000Y-55100000D01*
X159710000Y-53390000D02*
X180130000Y-53390000D01*
D11*
%TO.C,JP3*%
X163900000Y-76470000D02*
X164400000Y-76970000D01*
X163100000Y-76470000D02*
X163900000Y-76470000D01*
X164400000Y-76970000D02*
X164400000Y-80570000D01*
X162600000Y-76970000D02*
X163100000Y-76470000D01*
X164400000Y-80570000D02*
X163900000Y-81070000D01*
X162600000Y-80570000D02*
X162600000Y-76970000D01*
X163900000Y-81070000D02*
X163100000Y-81070000D01*
X163100000Y-81070000D02*
X162600000Y-80570000D01*
%TO.C,JP2*%
X181900000Y-82720000D02*
X182400000Y-83220000D01*
X181100000Y-82720000D02*
X181900000Y-82720000D01*
X182400000Y-83220000D02*
X182400000Y-86820000D01*
X180600000Y-83220000D02*
X181100000Y-82720000D01*
X182400000Y-86820000D02*
X181900000Y-87320000D01*
X180600000Y-86820000D02*
X180600000Y-83220000D01*
X181900000Y-87320000D02*
X181100000Y-87320000D01*
X181100000Y-87320000D02*
X180600000Y-86820000D01*
%TO.C,JP1*%
X168400000Y-82720000D02*
X168900000Y-83220000D01*
X167600000Y-82720000D02*
X168400000Y-82720000D01*
X168900000Y-83220000D02*
X168900000Y-86820000D01*
X167100000Y-83220000D02*
X167600000Y-82720000D01*
X168900000Y-86820000D02*
X168400000Y-87320000D01*
X167100000Y-86820000D02*
X167100000Y-83220000D01*
X168400000Y-87320000D02*
X167600000Y-87320000D01*
X167600000Y-87320000D02*
X167100000Y-86820000D01*
D12*
%TO.C,D1*%
X151315000Y-57125000D02*
X151315000Y-60295000D01*
X151315000Y-60295000D02*
X157000000Y-60295000D01*
X157000000Y-57125000D02*
X151315000Y-57125000D01*
%TO.C,D5*%
X187000000Y-55835000D02*
X181315000Y-55835000D01*
X181315000Y-59005000D02*
X187000000Y-59005000D01*
X181315000Y-55835000D02*
X181315000Y-59005000D01*
%TO.C,D6*%
X187000000Y-60125000D02*
X181315000Y-60125000D01*
X181315000Y-63295000D02*
X187000000Y-63295000D01*
X181315000Y-60125000D02*
X181315000Y-63295000D01*
%TO.C,D7*%
X187000000Y-64415000D02*
X181315000Y-64415000D01*
X181315000Y-67585000D02*
X187000000Y-67585000D01*
X181315000Y-64415000D02*
X181315000Y-67585000D01*
%TO.C,D8*%
X187000000Y-68705000D02*
X181315000Y-68705000D01*
X181315000Y-71875000D02*
X187000000Y-71875000D01*
X181315000Y-68705000D02*
X181315000Y-71875000D01*
%TO.C,D4*%
X157000000Y-69995000D02*
X151315000Y-69995000D01*
X151315000Y-73165000D02*
X157000000Y-73165000D01*
X151315000Y-69995000D02*
X151315000Y-73165000D01*
%TO.C,D2*%
X157000000Y-61415000D02*
X151315000Y-61415000D01*
X151315000Y-64585000D02*
X157000000Y-64585000D01*
X151315000Y-61415000D02*
X151315000Y-64585000D01*
%TO.C,D3*%
X157000000Y-65705000D02*
X151315000Y-65705000D01*
X151315000Y-68875000D02*
X157000000Y-68875000D01*
X151315000Y-65705000D02*
X151315000Y-68875000D01*
%TO.C,J5*%
X169580000Y-86380000D02*
X169580000Y-85000000D01*
X170960000Y-86380000D02*
X169580000Y-86380000D01*
X172230000Y-86380000D02*
X179960000Y-86380000D01*
X172230000Y-86380000D02*
X172230000Y-83620000D01*
X179960000Y-86380000D02*
X179960000Y-83620000D01*
X172230000Y-83620000D02*
X179960000Y-83620000D01*
%TO.C,R3*%
X167860436Y-77265000D02*
X168314564Y-77265000D01*
X167860436Y-78735000D02*
X168314564Y-78735000D01*
%TO.C,R2*%
X178185436Y-78765000D02*
X178639564Y-78765000D01*
X178185436Y-80235000D02*
X178639564Y-80235000D01*
%TO.C,R1*%
X160185436Y-72765000D02*
X160639564Y-72765000D01*
X160185436Y-74235000D02*
X160639564Y-74235000D01*
%TO.C,L3*%
X165815000Y-79540000D02*
X165815000Y-81460000D01*
X165815000Y-81460000D02*
X168500000Y-81460000D01*
X168500000Y-79540000D02*
X165815000Y-79540000D01*
%TO.C,L2*%
X176815000Y-74540000D02*
X176815000Y-76460000D01*
X176815000Y-76460000D02*
X179500000Y-76460000D01*
X179500000Y-74540000D02*
X176815000Y-74540000D01*
%TO.C,L1*%
X158815000Y-75040000D02*
X158815000Y-76960000D01*
X158815000Y-76960000D02*
X161500000Y-76960000D01*
X161500000Y-75040000D02*
X158815000Y-75040000D01*
%TO.C,J3*%
X155880000Y-81780000D02*
X164200000Y-81780000D01*
X155880000Y-82300000D02*
X164200000Y-82300000D01*
X155880000Y-87600000D02*
X156470000Y-87600000D01*
X155880000Y-88220000D02*
X155880000Y-81780000D01*
X156470000Y-88220000D02*
X155880000Y-88220000D01*
X158530000Y-87600000D02*
X159010000Y-87600000D01*
X159010000Y-88220000D02*
X158530000Y-88220000D01*
X161070000Y-87600000D02*
X161550000Y-87600000D01*
X161550000Y-88220000D02*
X161070000Y-88220000D01*
X163610000Y-87600000D02*
X164200000Y-87600000D01*
X164200000Y-81780000D02*
X164200000Y-88220000D01*
X164200000Y-88220000D02*
X163610000Y-88220000D01*
X157940000Y-89180000D02*
X157060000Y-89180000D01*
X157500000Y-88570000D01*
X157940000Y-89180000D01*
G36*
X157940000Y-89180000D02*
G01*
X157060000Y-89180000D01*
X157500000Y-88570000D01*
X157940000Y-89180000D01*
G37*
%TO.C,J1*%
X158027500Y-74840000D02*
X158027500Y-80620000D01*
X157507500Y-74840000D02*
X157507500Y-80620000D01*
X152207500Y-74840000D02*
X152207500Y-75430000D01*
X151587500Y-74840000D02*
X158027500Y-74840000D01*
X151587500Y-75430000D02*
X151587500Y-74840000D01*
X152207500Y-77490000D02*
X152207500Y-77970000D01*
X151587500Y-77970000D02*
X151587500Y-77490000D01*
X152207500Y-80030000D02*
X152207500Y-80620000D01*
X158027500Y-80620000D02*
X151587500Y-80620000D01*
X151587500Y-80620000D02*
X151587500Y-80030000D01*
X151237500Y-76460000D02*
X150627500Y-76900000D01*
X150627500Y-76020000D01*
X151237500Y-76460000D01*
G36*
X151237500Y-76460000D02*
G01*
X150627500Y-76900000D01*
X150627500Y-76020000D01*
X151237500Y-76460000D01*
G37*
%TO.C,U2*%
X170605000Y-66122500D02*
X170605000Y-66392500D01*
X170605000Y-73022500D02*
X170605000Y-72752500D01*
X177025000Y-66122500D02*
X170605000Y-66122500D01*
X177025000Y-73022500D02*
X170605000Y-73022500D01*
X168875000Y-66432500D02*
X168535000Y-65962500D01*
X169215000Y-65962500D01*
X168875000Y-66432500D01*
G36*
X168875000Y-66432500D02*
G01*
X168535000Y-65962500D01*
X169215000Y-65962500D01*
X168875000Y-66432500D01*
G37*
%TO.C,C2*%
X174870000Y-80000000D02*
G75*
G02*
X170630000Y-80000000I-2120000J0D01*
G01*
X170630000Y-80000000D02*
G75*
G02*
X174870000Y-80000000I2120000J0D01*
G01*
%TO.C,C1*%
X165370000Y-70000000D02*
G75*
G02*
X161130000Y-70000000I-2120000J0D01*
G01*
X161130000Y-70000000D02*
G75*
G02*
X165370000Y-70000000I2120000J0D01*
G01*
%TO.C,J2*%
X182280000Y-80160000D02*
X182280000Y-74380000D01*
X182800000Y-80160000D02*
X182800000Y-74380000D01*
X188100000Y-80160000D02*
X188100000Y-79570000D01*
X188720000Y-80160000D02*
X182280000Y-80160000D01*
X188720000Y-79570000D02*
X188720000Y-80160000D01*
X188100000Y-77510000D02*
X188100000Y-77030000D01*
X188720000Y-77030000D02*
X188720000Y-77510000D01*
X188100000Y-74970000D02*
X188100000Y-74380000D01*
X182280000Y-74380000D02*
X188720000Y-74380000D01*
X188720000Y-74380000D02*
X188720000Y-74970000D01*
X189680000Y-78980000D02*
X189070000Y-78540000D01*
X189680000Y-78100000D01*
X189680000Y-78980000D01*
G36*
X189680000Y-78980000D02*
G01*
X189070000Y-78540000D01*
X189680000Y-78100000D01*
X189680000Y-78980000D01*
G37*
%TD*%
M02*
